<?xml version="1.0" encoding="UTF-8" standalone="no"?>
<!-- Created with Inkscape (http://www.inkscape.org/) -->

<svg
   width="210mm"
   height="297mm"
   viewBox="0 0 210 297"
   version="1.1"
   id="svg8194"
   sodipodi:docname="721_mouth_f_v_frown.svg"
   inkscape:version="1.2-beta (1b65182ce9, 2022-04-05)"
   xmlns:inkscape="http://www.inkscape.org/namespaces/inkscape"
   xmlns:sodipodi="http://sodipodi.sourceforge.net/DTD/sodipodi-0.dtd"
   xmlns="http://www.w3.org/2000/svg"
   xmlns:svg="http://www.w3.org/2000/svg">
  <sodipodi:namedview
     id="namedview8196"
     pagecolor="#ffffff"
     bordercolor="#666666"
     borderopacity="1.0"
     inkscape:pageshadow="2"
     inkscape:pageopacity="0.0"
     inkscape:pagecheckerboard="0"
     inkscape:deskcolor="#d1d1d1"
     inkscape:document-units="mm"
     showgrid="false"
     inkscape:zoom="1"
     inkscape:cx="691.99998"
     inkscape:cy="794.49998"
     inkscape:window-width="1920"
     inkscape:window-height="991"
     inkscape:window-x="-9"
     inkscape:window-y="-9"
     inkscape:window-maximized="1"
     inkscape:current-layer="layer1" />
  <defs
     id="defs8191" />
  <g
     inkscape:label="Layer 1"
     inkscape:groupmode="layer"
     id="layer1">
    <path
       id="path270"
       style="font-variation-settings:'wdth' 100, 'wght' 900;fill:#ffffff;stroke-width:1.08128;stroke-linecap:round;paint-order:stroke fill markers"
       d="m 104.38588,137.58695 c -51.354346,-1.00508 -72.073361,25.78686 -77.780269,44.03504 7.30684,-3.69811 18.634921,-7.02024 34.033582,-7.02024 21.098187,0 33.841638,8.27639 39.406897,14.52211 0.37436,-0.003 1.68343,4.29589 2.05767,4.29236 1.0575,-0.01 3.483,-2.4367 4.58069,-2.4367 0.32703,0 -1.66799,-1.87916 -1.34359,-1.87916 8.63072,-6.32116 23.17135,-8.92595 40.7748,-10.10227 1.97969,-0.1323 6.88693,-0.47086 8.73467,-0.46254 14.36925,0.0648 22.51285,4.37915 28.74673,8.52204 -5.17316,-21.33316 -19.78011,-48.30748 -72.46431,-49.33859 z"
       sodipodi:nodetypes="scscsscsccss" />
    <path
       id="path8463"
       style="font-variation-settings:'wdth' 100, 'wght' 900;fill:#000000;stroke-width:1.19492;stroke-linecap:round;paint-order:stroke fill markers"
       d="m 105.01271,136.50691 c -56.434089,-0.21842 -79.473495,23.20762 -81.593468,46.90257 1.925043,-1.19673 4.258249,-2.40109 7.006808,-3.52072 4.458917,-19.74882 27.857299,-36.45152 74.58666,-36.45152 47.74823,0 71.15003,17.0393 74.86675,37.64318 2.95896,1.64065 5.24944,3.37503 6.85126,4.94957 -0.63106,-23.95095 -23.22435,-49.29668 -81.71801,-49.52308 z"
       sodipodi:nodetypes="sccsccs" />
    <path
       id="path7945"
       style="font-variation-settings:'wdth' 100, 'wght' 900;fill:#000000;stroke-width:1.19492;stroke-linecap:round;paint-order:stroke fill markers"
       d="m 24.504711,183.43482 1.5875,-6.94014 c 27.021782,-9.51488 67.234104,-13.7691 66.987286,-7.94514 -0.220016,5.19152 -14.659841,-0.9315 -68.574786,14.88528 z"
       sodipodi:nodetypes="ccsc" />
    <path
       id="path2866"
       style="font-variation-settings:'wdth' 100, 'wght' 900;fill:#000000;stroke-width:1.19492;stroke-linecap:round;paint-order:stroke fill markers"
       d="m 60.638954,174.60156 c 32.469099,0 45.161916,19.60644 42.335376,21.23833 -5.283957,3.05068 -8.816157,-14.30769 -42.335376,-14.30769 -33.51923,0 -40.435927,11.55385 -43.535397,9.76437 -3.33723,-1.92675 11.066287,-16.69501 43.535397,-16.69501 z"
       sodipodi:nodetypes="zszsz" />
    <path
       id="path3594"
       style="font-variation-settings:'wdth' 100, 'wght' 900;fill:#000000;stroke-width:1.19492;stroke-linecap:round;paint-order:stroke fill markers"
       d="m 145.83483,174.60156 c 31.67536,-2.11667 46.49555,14.83323 43.27084,16.69501 -2.93181,1.69268 -9.75161,-12.01333 -43.27084,-9.76437 -33.51923,2.24896 -46.124507,19.88823 -49.223977,18.09875 -3.33723,-1.92675 17.548617,-22.91272 49.223977,-25.02939 z"
       sodipodi:nodetypes="zszsz" />
  </g>
</svg>
