<?xml version="1.0" encoding="UTF-8" standalone="no"?>
<!-- Created with Inkscape (http://www.inkscape.org/) -->

<svg
   width="210mm"
   height="297mm"
   viewBox="0 0 210 297"
   version="1.1"
   id="svg8194"
   sodipodi:docname="721_mouth_teeth_o_mischievous.svg"
   inkscape:version="1.2-beta (1b65182ce9, 2022-04-05)"
   xmlns:inkscape="http://www.inkscape.org/namespaces/inkscape"
   xmlns:sodipodi="http://sodipodi.sourceforge.net/DTD/sodipodi-0.dtd"
   xmlns="http://www.w3.org/2000/svg"
   xmlns:svg="http://www.w3.org/2000/svg">
  <sodipodi:namedview
     id="namedview8196"
     pagecolor="#ffffff"
     bordercolor="#666666"
     borderopacity="1.0"
     inkscape:pageshadow="2"
     inkscape:pageopacity="0.0"
     inkscape:pagecheckerboard="0"
     inkscape:deskcolor="#d1d1d1"
     inkscape:document-units="mm"
     showgrid="false"
     inkscape:zoom="1.4324916"
     inkscape:cx="424.08627"
     inkscape:cy="660.03879"
     inkscape:window-width="1920"
     inkscape:window-height="991"
     inkscape:window-x="-9"
     inkscape:window-y="-9"
     inkscape:window-maximized="1"
     inkscape:current-layer="layer1" />
  <defs
     id="defs8191" />
  <g
     inkscape:label="Layer 1"
     inkscape:groupmode="layer"
     id="layer1">
    <path
       style="fill:#ffffff;fill-opacity:1;stroke:none;stroke-width:0.302655px;stroke-linecap:butt;stroke-linejoin:miter;stroke-opacity:1"
       d="m 51.857141,157.38475 -0.753472,17.53624 -0.565105,17.06231 9.418417,13.50763 16.764782,9.47905 20.908871,4.26559 h 36.355116 l 23.73441,-9.71604 12.05556,-11.1379 3.579,-12.79672 -1.31858,-17.53622 -6.59289,-14.45557 -19.5903,-2.13279 -26.55994,7.10929 -30.120603,1.43097 z"
       id="path7964"
       sodipodi:nodetypes="cccccccccccccccc" />
    <path
       id="path7945-2"
       style="font-variation-settings:'wdth' 100, 'wght' 900;fill:#e6e6e6;stroke-width:1.19492;stroke-linecap:round;paint-order:stroke fill markers"
       d="m 172.81408,173.27566 -1.5875,6.94014 c -27.02178,9.51488 -67.23411,13.7691 -66.98729,7.94514 0.22002,-5.19152 14.65984,0.9315 68.57479,-14.88528 z"
       sodipodi:nodetypes="ccsc" />
    <path
       id="path7945"
       style="font-variation-settings:'wdth' 100, 'wght' 900;fill:#000000;stroke-width:1.19492;stroke-linecap:round;paint-order:stroke fill markers"
       d="m 148.02678,146.85357 c -18.38616,0 -35.79855,9.21236 -53.556922,9.21236 -40.196071,0 -58.691471,-9.89784 -60.310531,-5.96243 -3.008349,7.3123 30.348202,12.87208 60.310531,12.87208 20.619912,0 36.799322,-8.96638 53.556922,-8.96638 14.52676,0 20.76773,8.89805 20.76773,28.99876 0,17.58528 -12.02731,34.04081 -49.03369,34.04081 -82.344387,0 -63.583717,-59.2212 -63.583717,-59.2212 h -7.947319 c 0,0 -21.90716,66.13034 71.531036,66.13034 45.877,0 56.26942,-21.39003 56.26942,-40.94995 0,-24.92549 -7.88151,-36.15439 -28.00346,-36.15439 z"
       sodipodi:nodetypes="sssssssccsss" />
  </g>
</svg>
