<?xml version="1.0" encoding="UTF-8" standalone="no"?>
<!-- Created with Inkscape (http://www.inkscape.org/) -->

<svg
   width="210mm"
   height="297mm"
   viewBox="0 0 210 297"
   version="1.1"
   id="svg8194"
   sodipodi:docname="721_mouth_teeth_i_mischievous.svg"
   inkscape:version="1.2-beta (1b65182ce9, 2022-04-05)"
   xmlns:inkscape="http://www.inkscape.org/namespaces/inkscape"
   xmlns:sodipodi="http://sodipodi.sourceforge.net/DTD/sodipodi-0.dtd"
   xmlns="http://www.w3.org/2000/svg"
   xmlns:svg="http://www.w3.org/2000/svg">
  <sodipodi:namedview
     id="namedview8196"
     pagecolor="#ffffff"
     bordercolor="#666666"
     borderopacity="1.0"
     inkscape:pageshadow="2"
     inkscape:pageopacity="0.0"
     inkscape:pagecheckerboard="0"
     inkscape:deskcolor="#d1d1d1"
     inkscape:document-units="mm"
     showgrid="false"
     inkscape:zoom="1.4324916"
     inkscape:cx="438.39699"
     inkscape:cy="661.43494"
     inkscape:window-width="1920"
     inkscape:window-height="991"
     inkscape:window-x="-9"
     inkscape:window-y="-9"
     inkscape:window-maximized="1"
     inkscape:current-layer="layer1" />
  <defs
     id="defs8191" />
  <g
     inkscape:label="Layer 1"
     inkscape:groupmode="layer"
     id="layer1">
    <path
       style="fill:#ffffff;fill-opacity:1;stroke:none;stroke-width:0.283166px;stroke-linecap:butt;stroke-linejoin:miter;stroke-opacity:1"
       d="m 49.373912,156.07698 -0.84639,13.66526 -0.634793,13.29594 10.579884,10.52594 18.832192,7.38663 23.487325,3.32399 h 40.83836 l 26.66131,-7.57129 13.54224,-8.6793 4.02035,-9.97195 -1.48118,-13.66526 -7.40591,-11.26461 -22.00616,-1.662 -29.83527,5.53998 -32.797632,2.95465 z"
       id="path7964" />
    <path
       id="path7945-2"
       style="font-variation-settings:'wdth' 100, 'wght' 900;fill:#e6e6e6;stroke-width:1.19492;stroke-linecap:round;paint-order:stroke fill markers"
       d="m 185.18908,165.63824 -1.5875,6.94014 c -27.02178,9.51488 -67.23411,13.7691 -66.98729,7.94514 0.22002,-5.19152 14.65984,0.9315 68.57479,-14.88528 z"
       sodipodi:nodetypes="ccsc" />
    <path
       id="path7945"
       style="font-variation-settings:'wdth' 100, 'wght' 900;fill:#000000;stroke-width:1.19492;stroke-linecap:round;paint-order:stroke fill markers"
       d="m 156.99828,146.85357 c -20.23318,0 -35.9934,9.21236 -57.261102,9.21236 -51.832265,0 -77.212305,-10.42701 -78.831365,-6.4916 -3.008349,7.3123 42.773887,13.40125 78.831365,13.40125 25.472482,0 38.102382,-8.96638 57.261102,-8.96638 14.52676,0 25.00106,3.48635 25.00106,18.41542 0,22.75692 -30.54815,28.74915 -67.55453,28.74915 -82.34439,0 -63.58372,-43.3462 -63.58372,-43.3462 h -7.947319 c 0,0 -21.90716,50.25534 71.531039,50.25534 45.877,0 74.79026,-9.63381 74.79026,-35.65829 0,-18.64564 -12.11484,-25.57105 -32.23679,-25.57105 z"
       sodipodi:nodetypes="sssssssccsss" />
  </g>
</svg>
