<?xml version="1.0" encoding="UTF-8" standalone="no"?>
<!-- Created with Inkscape (http://www.inkscape.org/) -->

<svg
   width="210mm"
   height="297mm"
   viewBox="0 0 210 297"
   version="1.1"
   id="svg8194"
   sodipodi:docname="721_mouth_teeth_e_mischievous.svg"
   inkscape:version="1.2-beta (1b65182ce9, 2022-04-05)"
   xmlns:inkscape="http://www.inkscape.org/namespaces/inkscape"
   xmlns:sodipodi="http://sodipodi.sourceforge.net/DTD/sodipodi-0.dtd"
   xmlns="http://www.w3.org/2000/svg"
   xmlns:svg="http://www.w3.org/2000/svg">
  <sodipodi:namedview
     id="namedview8196"
     pagecolor="#ffffff"
     bordercolor="#666666"
     borderopacity="1.0"
     inkscape:pageshadow="2"
     inkscape:pageopacity="0.0"
     inkscape:pagecheckerboard="0"
     inkscape:deskcolor="#d1d1d1"
     inkscape:document-units="mm"
     showgrid="false"
     inkscape:zoom="1.4324916"
     inkscape:cx="438.39699"
     inkscape:cy="660.73686"
     inkscape:window-width="1920"
     inkscape:window-height="991"
     inkscape:window-x="-9"
     inkscape:window-y="-9"
     inkscape:window-maximized="1"
     inkscape:current-layer="layer1" />
  <defs
     id="defs8191" />
  <g
     inkscape:label="Layer 1"
     inkscape:groupmode="layer"
     id="layer1">
    <path
       style="fill:#ffffff;fill-opacity:1;stroke:none;stroke-width:0.283166px;stroke-linecap:butt;stroke-linejoin:miter;stroke-opacity:1"
       d="m 49.373912,156.07698 -0.84639,13.66526 -0.634793,13.29594 10.579884,10.52594 18.832192,7.38663 23.487325,3.32399 h 40.83836 l 26.66131,-7.57129 13.54224,-8.6793 4.02035,-9.97195 -1.48118,-13.66526 -7.40591,-11.26461 -22.00616,-1.662 -29.83527,5.53998 -32.797632,2.95465 z"
       id="path7964" />
    <path
       id="path7945-2"
       style="font-variation-settings:'wdth' 100, 'wght' 900;fill:#e6e6e6;stroke-width:1.19492;stroke-linecap:round;paint-order:stroke fill markers"
       d="m 186.24742,163.52156 -1.5875,6.94014 c -27.02178,9.51488 -67.23411,13.7691 -66.98729,7.94514 0.22002,-5.19152 14.65984,0.9315 68.57479,-14.88528 z"
       sodipodi:nodetypes="ccsc" />
    <path
       id="path7945"
       style="font-variation-settings:'wdth' 100, 'wght' 900;fill:#000000;stroke-width:1.19492;stroke-linecap:round;paint-order:stroke fill markers"
       d="m 159.11495,146.85357 c -20.23318,0 -40.22674,9.21236 -61.494439,9.21236 -51.832265,0 -77.741471,-10.42701 -79.360531,-6.4916 -3.008349,7.3123 43.303053,13.40125 79.360531,13.40125 25.472479,0 42.335719,-8.96638 61.494439,-8.96638 14.52676,0 25.53022,0.84052 25.53022,15.76959 0,22.75692 -33.19398,26.10331 -70.20036,26.10331 -82.34439,0 -65.700387,-38.05453 -65.700387,-38.05453 h -7.947319 c 0,0 -19.790493,44.96367 73.647706,44.96367 45.877,0 77.43609,-6.98797 77.43609,-33.01245 0,-18.64564 -12.644,-22.92522 -32.76595,-22.92522 z"
       sodipodi:nodetypes="sssssssccsss" />
  </g>
</svg>
