<?xml version="1.0" encoding="UTF-8" standalone="no"?>
<!-- Created with Inkscape (http://www.inkscape.org/) -->

<svg
   width="210mm"
   height="297mm"
   viewBox="0 0 210 297"
   version="1.1"
   id="svg8194"
   sodipodi:docname="721_mouth_open_i_frown.svg"
   inkscape:version="1.2-beta (1b65182ce9, 2022-04-05)"
   xmlns:inkscape="http://www.inkscape.org/namespaces/inkscape"
   xmlns:sodipodi="http://sodipodi.sourceforge.net/DTD/sodipodi-0.dtd"
   xmlns="http://www.w3.org/2000/svg"
   xmlns:svg="http://www.w3.org/2000/svg">
  <sodipodi:namedview
     id="namedview8196"
     pagecolor="#ffffff"
     bordercolor="#666666"
     borderopacity="1.0"
     inkscape:pageshadow="2"
     inkscape:pageopacity="0.0"
     inkscape:pagecheckerboard="0"
     inkscape:deskcolor="#d1d1d1"
     inkscape:document-units="mm"
     showgrid="false"
     inkscape:zoom="1.4142136"
     inkscape:cx="530.33007"
     inkscape:cy="653.0131"
     inkscape:window-width="1920"
     inkscape:window-height="991"
     inkscape:window-x="-9"
     inkscape:window-y="-9"
     inkscape:window-maximized="1"
     inkscape:current-layer="layer1" />
  <defs
     id="defs8191" />
  <g
     inkscape:label="Layer 1"
     inkscape:groupmode="layer"
     id="layer1">
    <path
       style="fill:#a82626;fill-opacity:1;stroke:none;stroke-width:0.225024px;stroke-linecap:butt;stroke-linejoin:miter;stroke-opacity:1"
       d="m 99.686124,193.92767 -23.45642,1.61741 -39.934664,6.70107 -2.73304,-8.36252 1.70903,-14.05624 3.97697,-11.01589 c 16.1555,-21.3573 30.706794,-29.75014 57.337194,-31.37475 31.672096,-1.08831 73.765356,13.22475 77.100776,41.40272 l 6.03361,21.85811 -46.86135,-4.47732 z"
       id="path18886"
       sodipodi:nodetypes="ccccccccccc" />
    <path
       id="path20173-6"
       style="font-variation-settings:'wght' 50;fill:#ea2c4f;fill-opacity:1;stroke-width:0.239782;stroke-linecap:round;paint-order:stroke fill markers"
       d="m 166.72886,181.67623 c -12.59708,-7.20944 -25.84869,-3.6045 -33.05826,8.9925 -0.9754,1.70433 -1.75117,3.42039 -2.33522,5.13208 l 23.01992,0.54001 24.97846,3.81518 c -0.55939,-7.39866 -4.89956,-14.06983 -12.6049,-18.47977 z"
       sodipodi:nodetypes="cscccc"
       inkscape:transform-center-x="-2.2040562"
       inkscape:transform-center-y="0.66117648" />
    <path
       id="path8463"
       style="font-variation-settings:'wdth' 100, 'wght' 900;fill:#000000;stroke-width:1.19492;stroke-linecap:round;paint-order:stroke fill markers"
       d="m 105.01292,195.29174 c -61.681934,0 -76.466652,25.49869 -76.466652,-2.9342 0,-24.8782 17.12873,-56.0805 76.466652,-55.85084 59.33792,0.22966 76.44082,31.60064 76.44082,55.85084 0,27.50431 -14.75889,2.9342 -76.44082,2.9342 z m 70.10942,-2.9342 c 0,-23.18198 -17.80302,-48.92051 -70.10942,-48.92051 -52.306406,0 -70.092369,26.21841 -70.092369,48.92051 0,16.90235 8.661769,-3.99664 70.092369,-3.99664 61.4306,0 70.10942,20.63051 70.10942,3.99664 z"
       sodipodi:nodetypes="zszszszszs" />
  </g>
</svg>
