<?xml version="1.0" encoding="UTF-8" standalone="no"?>
<!-- Created with Inkscape (http://www.inkscape.org/) -->

<svg
   width="210mm"
   height="297mm"
   viewBox="0 0 210 297"
   version="1.1"
   id="svg8194"
   sodipodi:docname="721_mouth_open_a_frown.svg"
   inkscape:version="1.2-beta (1b65182ce9, 2022-04-05)"
   xmlns:inkscape="http://www.inkscape.org/namespaces/inkscape"
   xmlns:sodipodi="http://sodipodi.sourceforge.net/DTD/sodipodi-0.dtd"
   xmlns="http://www.w3.org/2000/svg"
   xmlns:svg="http://www.w3.org/2000/svg">
  <sodipodi:namedview
     id="namedview8196"
     pagecolor="#ffffff"
     bordercolor="#666666"
     borderopacity="1.0"
     inkscape:pageshadow="2"
     inkscape:pageopacity="0.0"
     inkscape:pagecheckerboard="0"
     inkscape:deskcolor="#d1d1d1"
     inkscape:document-units="mm"
     showgrid="false"
     inkscape:zoom="1"
     inkscape:cx="554.99999"
     inkscape:cy="803.49998"
     inkscape:window-width="1920"
     inkscape:window-height="991"
     inkscape:window-x="-9"
     inkscape:window-y="-9"
     inkscape:window-maximized="1"
     inkscape:current-layer="layer1" />
  <defs
     id="defs8191" />
  <g
     inkscape:label="Layer 1"
     inkscape:groupmode="layer"
     id="layer1">
    <path
       style="fill:#a82626;fill-opacity:1;stroke:none;stroke-width:0.264583px;stroke-linecap:butt;stroke-linejoin:miter;stroke-opacity:1"
       d="m 98.072312,220.73352 -22.015209,5.13829 -37.480987,7.11488 -2.565116,-12.31804 1.604022,-20.70492 6.366522,-16.22648 c 15.162868,-31.45943 26.186185,-43.82213 51.180358,-46.21519 29.726098,-1.60308 69.233058,19.48014 72.363538,60.98646 l 5.66289,32.19711 -43.98208,-6.59511 z"
       id="path18886"
       sodipodi:nodetypes="ccccccccccc" />
    <path
       id="path20173"
       style="font-variation-settings:'wght' 50;fill:#ea2c4f;fill-opacity:1;stroke-width:0.239782;stroke-linecap:round;paint-order:stroke fill markers"
       d="m 143.57294,207.46947 c 13.85333,-4.32988 26.01879,2.04212 30.34881,15.89539 0.58582,1.87429 0.97417,3.71707 1.17618,5.51435 l -21.24797,4.17288 -26.56315,-10.24811 c 2.13834,-7.10495 7.81237,-12.68592 16.28613,-15.33451 z" />
    <path
       id="path8463"
       style="font-variation-settings:'wdth' 100, 'wght' 900;fill:#000000;stroke-width:1.19492;stroke-linecap:round;paint-order:stroke fill markers"
       d="m 105.01292,226.57367 c -61.681934,0 -71.174985,25.49869 -71.174985,-2.9342 0,-24.8782 11.837063,-87.8305 71.174985,-87.60084 59.33792,0.22966 71.14915,63.35064 71.14915,87.60084 0,29.48869 -9.46722,2.9342 -71.14915,2.9342 z m 64.81775,-2.9342 c 0,-23.18198 -12.51135,-80.67051 -64.81775,-80.67051 -52.306406,0 -64.800702,57.96841 -64.800702,80.67051 0,16.90235 3.370102,-3.99664 64.800702,-3.99664 61.4306,0 64.81775,19.69507 64.81775,3.99664 z"
       sodipodi:nodetypes="zszszszszs" />
  </g>
</svg>
