<?xml version="1.0" encoding="UTF-8" standalone="no"?>
<!-- Created with Inkscape (http://www.inkscape.org/) -->

<svg
   width="210mm"
   height="297mm"
   viewBox="0 0 210 297"
   version="1.1"
   id="svg8194"
   sodipodi:docname="721_mouth_open_a_worried.svg"
   inkscape:version="1.2-beta (1b65182ce9, 2022-04-05)"
   xmlns:inkscape="http://www.inkscape.org/namespaces/inkscape"
   xmlns:sodipodi="http://sodipodi.sourceforge.net/DTD/sodipodi-0.dtd"
   xmlns="http://www.w3.org/2000/svg"
   xmlns:svg="http://www.w3.org/2000/svg">
  <sodipodi:namedview
     id="namedview8196"
     pagecolor="#ffffff"
     bordercolor="#666666"
     borderopacity="1.0"
     inkscape:pageshadow="2"
     inkscape:pageopacity="0.0"
     inkscape:pagecheckerboard="0"
     inkscape:deskcolor="#d1d1d1"
     inkscape:document-units="mm"
     showgrid="false"
     inkscape:zoom="2"
     inkscape:cx="491.5"
     inkscape:cy="664.25"
     inkscape:window-width="1920"
     inkscape:window-height="991"
     inkscape:window-x="-9"
     inkscape:window-y="-9"
     inkscape:window-maximized="1"
     inkscape:current-layer="layer1" />
  <defs
     id="defs8191" />
  <g
     inkscape:label="Layer 1"
     inkscape:groupmode="layer"
     id="layer1">
    <path
       id="path9493"
       style="font-variation-settings:'wght' 50;fill:#a82626;fill-opacity:1;stroke:none;stroke-width:0.185208;stroke-linecap:round;paint-order:stroke fill markers"
       d="m 49.609375,147.90208 -11.773958,13.09688 0.490697,25.14534 11.812428,15.99736 21.944783,1.97871 32.016515,-8.09318 41.29515,9.02811 17.99502,-3.27519 7.39853,-12.60303 -0.24189,-34.53981 -15.4489,-8.77939 -21.85051,0.32709 -26.98088,7.32977 -35.891961,-9.74981 z"
       sodipodi:nodetypes="ccccccccccccccc" />
    <path
       id="path8000"
       style="font-variation-settings:'wght' 50;fill:#ea2c4f;fill-opacity:1;stroke:none;stroke-width:0.239386;stroke-linecap:round;paint-order:stroke fill markers"
       d="m 153.34775,173.65142 c -14.29034,1.8e-4 -23.13883,8.84908 -23.13864,23.13915 1e-5,0.64953 0.019,1.28594 0.0553,1.90996 17.53153,4.40716 37.30228,5.41274 39.38158,-19.43809 -3.96622,-3.61864 -9.51941,-5.61111 -16.29823,-5.61102 z"
       sodipodi:nodetypes="ssccs" />
    <path
       id="path8463"
       style="font-variation-settings:'wdth' 100, 'wght' 900;fill:#000000;stroke-width:1.19492;stroke-linecap:round;paint-order:stroke fill markers"
       d="m 105.01292,150.67073 c -9.110017,0 -71.174985,-32.72638 -71.174985,24.10087 0,56.82724 59.907272,24.14445 71.174985,24.10084 11.26771,-0.0436 71.14915,31.08548 71.14915,-24.10084 0,-55.18632 -62.03913,-24.10087 -71.14915,-24.10087 z m 64.81775,24.10087 c 0,46.71203 -52.9225,17.17051 -64.81775,17.17051 -11.895247,0 -64.800702,30.02919 -64.800702,-17.17051 0,-47.1997 55.006574,-17.17003 64.800702,-17.17003 9.79413,0 64.81775,-29.54201 64.81775,17.17003 z"
       sodipodi:nodetypes="zzzzzzzzzz" />
  </g>
</svg>
