<?xml version="1.0" encoding="UTF-8" standalone="no"?>
<!-- Created with Inkscape (http://www.inkscape.org/) -->

<svg
   width="210mm"
   height="297mm"
   viewBox="0 0 210 297"
   version="1.1"
   id="svg8194"
   sodipodi:docname="721_mouth_open_o_worried.svg"
   inkscape:version="1.2-beta (1b65182ce9, 2022-04-05)"
   xmlns:inkscape="http://www.inkscape.org/namespaces/inkscape"
   xmlns:sodipodi="http://sodipodi.sourceforge.net/DTD/sodipodi-0.dtd"
   xmlns="http://www.w3.org/2000/svg"
   xmlns:svg="http://www.w3.org/2000/svg">
  <sodipodi:namedview
     id="namedview8196"
     pagecolor="#ffffff"
     bordercolor="#666666"
     borderopacity="1.0"
     inkscape:pageshadow="2"
     inkscape:pageopacity="0.0"
     inkscape:pagecheckerboard="0"
     inkscape:deskcolor="#d1d1d1"
     inkscape:document-units="mm"
     showgrid="false"
     inkscape:zoom="1.4142136"
     inkscape:cx="645.58847"
     inkscape:cy="771.09992"
     inkscape:window-width="1920"
     inkscape:window-height="991"
     inkscape:window-x="-9"
     inkscape:window-y="-9"
     inkscape:window-maximized="1"
     inkscape:current-layer="layer1" />
  <defs
     id="defs8191" />
  <g
     inkscape:label="Layer 1"
     inkscape:groupmode="layer"
     id="layer1">
    <path
       id="path9493"
       style="font-variation-settings:'wght' 50;fill:#a82626;fill-opacity:1;stroke:none;stroke-width:0.218458;stroke-linecap:round;paint-order:stroke fill markers"
       d="m 53.612142,156.45006 -10.91242,19.66018 3.40257,53.63351 8.000296,8.12719 23.633589,-3.12114 24.907853,-12.19957 39.9287,15.05064 13.60607,-4.28375 9.74543,-12.73886 -0.43094,-52.10388 -14.90868,-12.80919 -19.45466,1.6854 -25.25182,11.38529 -33.020408,-15.01811 z"
       sodipodi:nodetypes="ccccccccccccccc" />
    <path
       id="path8000"
       style="font-variation-settings:'wght' 50;fill:#ea2c4f;fill-opacity:1;stroke:none;stroke-width:0.239386;stroke-linecap:round;paint-order:stroke fill markers"
       d="m 148.05608,209.89935 c -14.29034,1.8e-4 -23.13883,8.84908 -23.13864,23.13915 1e-5,0.64953 0.019,1.28594 0.0553,1.90996 17.53153,4.40716 37.30228,5.41274 39.38158,-19.43809 -3.96622,-3.61864 -9.51941,-5.61111 -16.29823,-5.61102 z"
       sodipodi:nodetypes="ssccs" />
    <path
       id="path8463"
       style="font-variation-settings:'wdth' 100, 'wght' 900;fill:#000000;stroke-width:1.37697;stroke-linecap:round;paint-order:stroke fill markers"
       d="m 105.01292,164.32877 c -9.110017,0 -65.883318,-43.45784 -65.883318,32.00389 0,75.46172 54.615605,32.06177 65.883318,32.00386 11.26771,-0.0579 65.85748,41.27886 65.85748,-32.00386 0,-73.28271 -56.74746,-32.00389 -65.85748,-32.00389 z m 59.52608,32.00389 c 0,65.2101 -47.63083,25.4468 -59.52608,25.4468 -11.895247,0 -59.509035,41.90759 -59.509035,-25.4468 0,-67.35439 49.714907,-24.917 59.509035,-24.917 9.79413,0 59.52608,-40.2931 59.52608,24.917 z"
       sodipodi:nodetypes="zzzzzzzzzz" />
  </g>
</svg>
