<?xml version="1.0" encoding="UTF-8" standalone="no"?>
<!-- Created with Inkscape (http://www.inkscape.org/) -->

<svg
   width="210mm"
   height="297mm"
   viewBox="0 0 210 297"
   version="1.1"
   id="svg8194"
   sodipodi:docname="721_mouth_open_i_worried.svg"
   inkscape:version="1.2-beta (1b65182ce9, 2022-04-05)"
   xmlns:inkscape="http://www.inkscape.org/namespaces/inkscape"
   xmlns:sodipodi="http://sodipodi.sourceforge.net/DTD/sodipodi-0.dtd"
   xmlns="http://www.w3.org/2000/svg"
   xmlns:svg="http://www.w3.org/2000/svg">
  <sodipodi:namedview
     id="namedview8196"
     pagecolor="#ffffff"
     bordercolor="#666666"
     borderopacity="1.0"
     inkscape:pageshadow="2"
     inkscape:pageopacity="0.0"
     inkscape:pagecheckerboard="0"
     inkscape:deskcolor="#d1d1d1"
     inkscape:document-units="mm"
     showgrid="false"
     inkscape:zoom="1.4142136"
     inkscape:cx="612.35447"
     inkscape:cy="644.52783"
     inkscape:window-width="1920"
     inkscape:window-height="991"
     inkscape:window-x="-9"
     inkscape:window-y="-9"
     inkscape:window-maximized="1"
     inkscape:current-layer="layer1" />
  <defs
     id="defs8191" />
  <g
     inkscape:label="Layer 1"
     inkscape:groupmode="layer"
     id="layer1">
    <path
       id="path9493"
       style="font-variation-settings:'wght' 50;fill:#a82626;fill-opacity:1;stroke:none;stroke-width:0.168326;stroke-linecap:round;paint-order:stroke fill markers"
       d="m 40.816208,145.87263 -8.272458,12.12774 0.490697,26.06191 4.943332,7.5481 34.105546,7.30028 32.016515,-6.68503 46.58682,7.45729 17.99502,-7.99701 7.39853,-5.11853 -0.24189,-33.82181 -15.4489,-7.25185 -27.14218,0.27018 -26.98088,6.05445 -35.891961,-8.05342 z"
       sodipodi:nodetypes="ccccccccccccccc" />
    <path
       id="path8000"
       style="font-variation-settings:'wght' 50;fill:#ea2c4f;fill-opacity:1;stroke:none;stroke-width:0.239386;stroke-linecap:round;paint-order:stroke fill markers"
       d="m 158.63942,169.41809 c -14.29034,1.8e-4 -23.13883,8.84908 -23.13864,23.13915 1e-5,0.64953 0.019,1.28594 0.0553,1.90996 17.53153,4.40716 37.30228,5.41274 39.38158,-19.43809 -3.96622,-3.61864 -9.51941,-5.61111 -16.29823,-5.61102 z"
       sodipodi:nodetypes="ssccss" />
    <path
       id="path8463"
       style="font-variation-settings:'wdth' 100, 'wght' 900;fill:#000000;stroke-width:1.19492;stroke-linecap:round;paint-order:stroke fill markers"
       d="m 105.01292,150.67073 c -9.110017,0 -76.466652,-31.15997 -76.466652,19.86753 0,51.0275 65.198939,23.08613 76.466652,23.04252 11.26771,-0.0436 76.44082,25.78279 76.44082,-23.04252 0,-48.8253 -67.3308,-19.86753 -76.44082,-19.86753 z m 70.10942,19.86753 c 0,40.91229 -58.21417,16.11219 -70.10942,16.11219 -11.895247,0 -70.092369,26.03612 -70.092369,-16.11219 0,-42.1483 60.298241,-12.93669 70.092369,-12.93669 9.79413,0 70.10942,-27.9756 70.10942,12.93669 z"
       sodipodi:nodetypes="zzzzzzzzzz" />
  </g>
</svg>
