<?xml version="1.0" encoding="UTF-8" standalone="no"?>
<!-- Created with Inkscape (http://www.inkscape.org/) -->

<svg
   width="210mm"
   height="297mm"
   viewBox="0 0 210 297"
   version="1.1"
   id="svg8194"
   sodipodi:docname="721_mouth_open_e_worried.svg"
   inkscape:version="1.2-beta (1b65182ce9, 2022-04-05)"
   xmlns:inkscape="http://www.inkscape.org/namespaces/inkscape"
   xmlns:sodipodi="http://sodipodi.sourceforge.net/DTD/sodipodi-0.dtd"
   xmlns="http://www.w3.org/2000/svg"
   xmlns:svg="http://www.w3.org/2000/svg">
  <sodipodi:namedview
     id="namedview8196"
     pagecolor="#ffffff"
     bordercolor="#666666"
     borderopacity="1.0"
     inkscape:pageshadow="2"
     inkscape:pageopacity="0.0"
     inkscape:pagecheckerboard="0"
     inkscape:deskcolor="#d1d1d1"
     inkscape:document-units="mm"
     showgrid="false"
     inkscape:zoom="1.4142136"
     inkscape:cx="620.13265"
     inkscape:cy="692.61109"
     inkscape:window-width="1920"
     inkscape:window-height="991"
     inkscape:window-x="-9"
     inkscape:window-y="-9"
     inkscape:window-maximized="1"
     inkscape:current-layer="layer1" />
  <defs
     id="defs8191" />
  <g
     inkscape:label="Layer 1"
     inkscape:groupmode="layer"
     id="layer1">
    <path
       id="path9493"
       style="font-variation-settings:'wght' 50;fill:#a82626;fill-opacity:1;stroke:none;stroke-width:0.180545;stroke-linecap:round;paint-order:stroke fill markers"
       d="m 40.911055,141.86532 -13.646148,10.73817 0.568724,20.61673 13.690734,13.11628 25.434247,1.62235 37.324328,-10.00322 47.6447,10.76977 20.85643,-2.68534 8.57498,-10.33326 -0.28035,-28.31928 -17.90545,-7.19824 -27.71021,1.39072 -29.75327,7.69349 -40.731823,-8.55517 z"
       sodipodi:nodetypes="ccccccccccccccc" />
    <path
       id="path8000"
       style="font-variation-settings:'wght' 50;fill:#ea2c4f;fill-opacity:1;stroke:none;stroke-width:0.239386;stroke-linecap:round;paint-order:stroke fill markers"
       d="m 163.93109,162.53888 c -14.29034,1.8e-4 -23.13883,8.84908 -23.13864,23.13915 1e-5,0.64953 0.019,1.28594 0.0553,1.90996 17.53153,4.40716 37.30228,5.41274 39.38158,-19.43809 -3.96622,-3.61864 -9.51941,-5.61111 -16.29823,-5.61102 z"
       sodipodi:nodetypes="ssccs" />
    <path
       id="path8463"
       style="font-variation-settings:'wdth' 100, 'wght' 900;fill:#000000;stroke-width:1.19492;stroke-linecap:round;paint-order:stroke fill markers"
       d="m 105.01292,145.37906 c -9.110017,0 -81.758319,-31.09717 -81.758319,18.8092 0,49.90638 70.490606,18.8528 81.758319,18.80919 11.26771,-0.0436 81.73249,29.26776 81.73249,-18.80919 0,-48.07695 -72.62247,-18.8092 -81.73249,-18.8092 z m 75.40109,18.8092 c 0,41.10109 -63.50584,11.87886 -75.40109,11.87886 -11.895247,0 -75.571152,29.33995 -75.384036,-11.87886 0.187116,-41.2188 65.589908,-11.87836 75.384036,-11.87836 9.79413,0 75.40109,-29.22272 75.40109,11.87836 z"
       sodipodi:nodetypes="zzzzzzzzzz" />
  </g>
</svg>
