<?xml version="1.0" encoding="UTF-8" standalone="no"?>
<!-- Created with Inkscape (http://www.inkscape.org/) -->

<svg
   width="210mm"
   height="297mm"
   viewBox="0 0 210 297"
   version="1.1"
   id="svg8194"
   sodipodi:docname="721_mouth_open_o_mischievous.svg"
   inkscape:version="1.2-beta (1b65182ce9, 2022-04-05)"
   xmlns:inkscape="http://www.inkscape.org/namespaces/inkscape"
   xmlns:sodipodi="http://sodipodi.sourceforge.net/DTD/sodipodi-0.dtd"
   xmlns="http://www.w3.org/2000/svg"
   xmlns:svg="http://www.w3.org/2000/svg">
  <sodipodi:namedview
     id="namedview8196"
     pagecolor="#ffffff"
     bordercolor="#666666"
     borderopacity="1.0"
     inkscape:pageshadow="2"
     inkscape:pageopacity="0.0"
     inkscape:pagecheckerboard="0"
     inkscape:deskcolor="#d1d1d1"
     inkscape:document-units="mm"
     showgrid="false"
     inkscape:zoom="1.4324916"
     inkscape:cx="424.08627"
     inkscape:cy="660.03879"
     inkscape:window-width="1920"
     inkscape:window-height="991"
     inkscape:window-x="-9"
     inkscape:window-y="-9"
     inkscape:window-maximized="1"
     inkscape:current-layer="layer1" />
  <defs
     id="defs8191" />
  <g
     inkscape:label="Layer 1"
     inkscape:groupmode="layer"
     id="layer1">
    <path
       style="fill:#a82626;fill-opacity:1;stroke:none;stroke-width:0.31676px;stroke-linecap:butt;stroke-linejoin:miter;stroke-opacity:1"
       d="m 51.857141,157.94983 -0.753472,19.20889 -0.565105,18.68975 9.418417,14.79602 16.764782,10.38318 20.908871,4.67245 h 36.355116 l 23.73441,-10.64277 12.05556,-12.20026 3.579,-14.0173 -1.31858,-19.20887 -6.59289,-15.83437 -19.5903,-2.33622 -26.55994,7.78739 -30.120603,1.56746 z"
       id="path7964"
       sodipodi:nodetypes="cccccccccccccccc" />
    <path
       id="path20173"
       style="font-variation-settings:'wght' 50;fill:#ea2c4f;fill-opacity:1;stroke-width:0.239782;stroke-linecap:round;paint-order:stroke fill markers"
       d="m 150.70454,195.45274 c -14.49113,-0.81833 -24.73383,8.32977 -25.55232,22.82088 -0.11071,1.96059 -0.0376,3.84243 0.20505,5.63467 l 21.62391,-1.13845 23.25922,-16.42051 c -3.80753,-6.36834 -10.67194,-10.39594 -19.53586,-10.89659 z" />
    <path
       id="path7945"
       style="font-variation-settings:'wdth' 100, 'wght' 900;fill:#000000;stroke-width:1.19492;stroke-linecap:round;paint-order:stroke fill markers"
       d="m 151.7245,146.85357 c -18.38616,0 -39.50272,9.21236 -57.261091,9.21236 -40.196071,0 -56.045638,-9.89784 -57.664698,-5.96243 -3.008349,7.3123 27.702369,12.87208 57.664698,12.87208 20.619911,0 40.503491,-8.96638 57.261091,-8.96638 14.52676,0 19.70939,11.54388 19.70939,31.64459 0,21.27931 -14.67314,36.68665 -51.67952,36.68665 -82.344386,0 -63.583716,-64.51287 -63.583716,-64.51287 h -7.947319 c 0,0 -21.90716,71.42201 71.531035,71.42201 45.877,0 58.91525,-22.55826 58.91525,-43.59579 0,-24.92549 -6.82317,-38.80022 -26.94512,-38.80022 z"
       sodipodi:nodetypes="sssssssccsss" />
  </g>
</svg>
