<?xml version="1.0" encoding="UTF-8" standalone="no"?>
<!-- Created with Inkscape (http://www.inkscape.org/) -->

<svg
   width="210mm"
   height="297mm"
   viewBox="0 0 210 297"
   version="1.1"
   id="svg8194"
   sodipodi:docname="721_mouth_open_i_mischievous.svg"
   inkscape:version="1.2-beta (1b65182ce9, 2022-04-05)"
   xmlns:inkscape="http://www.inkscape.org/namespaces/inkscape"
   xmlns:sodipodi="http://sodipodi.sourceforge.net/DTD/sodipodi-0.dtd"
   xmlns="http://www.w3.org/2000/svg"
   xmlns:svg="http://www.w3.org/2000/svg">
  <sodipodi:namedview
     id="namedview8196"
     pagecolor="#ffffff"
     bordercolor="#666666"
     borderopacity="1.0"
     inkscape:pageshadow="2"
     inkscape:pageopacity="0.0"
     inkscape:pagecheckerboard="0"
     inkscape:deskcolor="#d1d1d1"
     inkscape:document-units="mm"
     showgrid="false"
     inkscape:zoom="1.4324916"
     inkscape:cx="438.39699"
     inkscape:cy="660.73686"
     inkscape:window-width="1920"
     inkscape:window-height="991"
     inkscape:window-x="-9"
     inkscape:window-y="-9"
     inkscape:window-maximized="1"
     inkscape:current-layer="layer1" />
  <defs
     id="defs8191" />
  <g
     inkscape:label="Layer 1"
     inkscape:groupmode="layer"
     id="layer1">
    <path
       style="fill:#a82626;fill-opacity:1;stroke:none;stroke-width:0.289669px;stroke-linecap:butt;stroke-linejoin:miter;stroke-opacity:1"
       d="m 50.933651,156.38374 -0.830526,14.57327 -0.622895,14.17941 10.381585,11.22535 18.479219,7.87744 23.047106,3.54486 h 40.07293 l 26.1616,-8.07438 13.28841,-9.25601 3.945,-10.63455 -1.45342,-14.57326 -7.2671,-12.01311 -21.5937,-1.77243 -29.27606,5.90809 -32.182917,3.15098 z"
       id="path7964" />
    <path
       id="path20173"
       style="font-variation-settings:'wght' 50;fill:#ea2c4f;fill-opacity:1;stroke-width:0.239782;stroke-linecap:round;paint-order:stroke fill markers"
       d="m 164.23762,178.09079 c -14.49113,-0.81833 -24.73383,8.32977 -25.55232,22.82088 -0.11071,1.96059 -0.0376,3.84243 0.20505,5.63467 l 21.62391,-1.13845 23.25922,-16.42051 c -3.80753,-6.36834 -10.67194,-10.39594 -19.53586,-10.89659 z" />
    <path
       id="path7945"
       style="font-variation-settings:'wdth' 100, 'wght' 900;fill:#000000;stroke-width:1.19492;stroke-linecap:round;paint-order:stroke fill markers"
       d="m 154.35973,146.85357 c -18.38616,0 -44.79439,9.21236 -62.55276,9.21236 -40.196071,0 -66.628972,-11.48534 -68.248032,-7.54993 -3.008349,7.3123 38.285703,14.45958 68.248032,14.45958 20.61991,0 45.79516,-8.96638 62.55276,-8.96638 14.52676,0 25.00106,4.28517 25.00106,21.06125 0,24.60394 -25.25648,31.39499 -62.26286,31.39499 -82.344385,0 -63.583715,-48.63787 -63.583715,-48.63787 h -7.947319 c 0,0 -21.90716,55.54701 71.531034,55.54701 45.877,0 69.49859,-9.69383 69.49859,-38.30413 0,-20.86205 -12.11484,-28.21688 -32.23679,-28.21688 z"
       sodipodi:nodetypes="sssssssccsss" />
  </g>
</svg>
