<?xml version="1.0" encoding="UTF-8" standalone="no"?>
<!-- Created with Inkscape (http://www.inkscape.org/) -->

<svg
   width="210mm"
   height="297mm"
   viewBox="0 0 210 297"
   version="1.1"
   id="svg8194"
   sodipodi:docname="721_mouth_open_a_mischievous.svg"
   inkscape:version="1.2-beta (1b65182ce9, 2022-04-05)"
   xmlns:inkscape="http://www.inkscape.org/namespaces/inkscape"
   xmlns:sodipodi="http://sodipodi.sourceforge.net/DTD/sodipodi-0.dtd"
   xmlns="http://www.w3.org/2000/svg"
   xmlns:svg="http://www.w3.org/2000/svg">
  <sodipodi:namedview
     id="namedview8196"
     pagecolor="#ffffff"
     bordercolor="#666666"
     borderopacity="1.0"
     inkscape:pageshadow="2"
     inkscape:pageopacity="0.0"
     inkscape:pagecheckerboard="0"
     inkscape:deskcolor="#d1d1d1"
     inkscape:document-units="mm"
     showgrid="false"
     inkscape:zoom="1.4324916"
     inkscape:cx="438.39699"
     inkscape:cy="660.73686"
     inkscape:window-width="1920"
     inkscape:window-height="991"
     inkscape:window-x="-9"
     inkscape:window-y="-9"
     inkscape:window-maximized="1"
     inkscape:current-layer="layer1" />
  <defs
     id="defs8191" />
  <g
     inkscape:label="Layer 1"
     inkscape:groupmode="layer"
     id="layer1">
    <path
       style="fill:#a82626;fill-opacity:1;stroke:none;stroke-width:0.299989px;stroke-linecap:butt;stroke-linejoin:miter;stroke-opacity:1"
       d="m 50.858297,157.02955 -0.787466,16.48487 -0.590601,16.03934 9.843344,12.69779 17.521151,8.91074 21.85221,4.00984 h 37.995325 l 24.80523,-9.13351 12.59946,-10.47013 3.74047,-12.0295 -1.37806,-16.48485 -6.89034,-13.58889 -20.47415,-2.00492 -27.75823,6.68306 -30.514367,3.5643 z"
       id="path7964" />
    <path
       id="path20173"
       style="font-variation-settings:'wght' 50;fill:#ea2c4f;fill-opacity:1;stroke-width:0.239782;stroke-linecap:round;paint-order:stroke fill markers"
       d="m 154.44844,184.92475 c -14.49113,-0.81833 -24.73383,8.32977 -25.55232,22.82088 -0.11071,1.96059 -0.0376,3.84243 0.20505,5.63467 l 21.62391,-1.13845 23.25922,-16.42051 C 170.17677,189.453 163.31236,185.4254 154.44844,184.92475 Z" />
    <path
       id="path7945"
       style="font-variation-settings:'wdth' 100, 'wght' 900;fill:#000000;stroke-width:1.19492;stroke-linecap:round;paint-order:stroke fill markers"
       d="m 149.07867,146.85357 c -18.38616,0 -39.50272,9.21236 -57.261096,9.21236 -40.196071,0 -61.337305,-11.48534 -62.956365,-7.54993 -3.008349,7.3123 32.994036,14.45958 62.956365,14.45958 20.619916,0 40.503496,-8.96638 57.261096,-8.96638 14.52676,0 25.00106,6.25221 25.00106,26.35292 0,21.27931 -19.96481,31.39499 -56.97119,31.39499 -82.344391,0 -63.583721,-53.92954 -63.583721,-53.92954 H 45.5775 c 0,0 -21.90716,60.83868 71.53104,60.83868 45.877,0 64.20692,-14.12667 64.20692,-38.30413 0,-24.92549 -12.11484,-33.50855 -32.23679,-33.50855 z"
       sodipodi:nodetypes="sssssssccsss" />
  </g>
</svg>
