<?xml version="1.0" encoding="UTF-8" standalone="no"?>
<!-- Created with Inkscape (http://www.inkscape.org/) -->

<svg
   width="210mm"
   height="297mm"
   viewBox="0 0 210 297"
   version="1.1"
   id="svg8194"
   sodipodi:docname="721_mouth_teeth_o.svg"
   inkscape:version="1.2-beta (1b65182ce9, 2022-04-05)"
   xmlns:inkscape="http://www.inkscape.org/namespaces/inkscape"
   xmlns:sodipodi="http://sodipodi.sourceforge.net/DTD/sodipodi-0.dtd"
   xmlns="http://www.w3.org/2000/svg"
   xmlns:svg="http://www.w3.org/2000/svg">
  <sodipodi:namedview
     id="namedview8196"
     pagecolor="#ffffff"
     bordercolor="#666666"
     borderopacity="1.0"
     inkscape:pageshadow="2"
     inkscape:pageopacity="0.0"
     inkscape:pagecheckerboard="0"
     inkscape:deskcolor="#d1d1d1"
     inkscape:document-units="mm"
     showgrid="false"
     inkscape:zoom="2"
     inkscape:cx="458"
     inkscape:cy="662.75"
     inkscape:window-width="1920"
     inkscape:window-height="991"
     inkscape:window-x="-9"
     inkscape:window-y="-9"
     inkscape:window-maximized="1"
     inkscape:current-layer="layer1" />
  <defs
     id="defs8191" />
  <g
     inkscape:label="Layer 1"
     inkscape:groupmode="layer"
     id="layer1">
    <path
       d="m 161.58726,175.89964 c 0,30.29075 -14.47706,45.94469 -57.01162,45.94469 -42.534564,0 -56.997764,-16.28098 -56.997764,-45.94469 0,-29.6637 13.889745,-47.3269 56.997764,-47.3269 43.10801,0 57.01162,17.03615 57.01162,47.3269 z"
       style="font-variation-settings:'wdth' 100, 'wght' 900;fill:#ffffff;stroke-width:1.23172;stroke-linecap:round;paint-order:stroke fill markers"
       id="path2733" />
    <path
       id="path7945"
       style="font-variation-settings:'wdth' 100, 'wght' 900;fill:#000000;stroke-width:1.19492;stroke-linecap:round;paint-order:stroke fill markers"
       d="m 56.835166,172.01812 c -1.417859,2.2e-4 -8.640191,6.1e-4 -10.131165,10e-4 v 6.94014 c 55.581669,0.016 65.486099,-0.0753 65.490579,-3.46955 0.004,-3.30367 -3.91359,-3.47929 -55.359414,-3.47163 z"
       sodipodi:nodetypes="cccccc" />
    <path
       id="path8463"
       style="font-variation-settings:'wdth' 100, 'wght' 900;fill:#000000;stroke-width:1.19492;stroke-linecap:round;paint-order:stroke fill markers"
       d="m 105.01292,124.39949 c -52.728817,0 -60.591652,25.681 -60.591652,50.5592 0,24.8782 6.539173,50.76838 60.591652,50.55917 54.05248,-0.2092 60.56582,-26.30897 60.56582,-50.55917 0,-24.2502 -7.837,-50.5592 -60.56582,-50.5592 z m 54.23442,50.5592 c 0,23.18198 -6.9551,43.62884 -54.23442,43.62884 -47.279323,0 -54.217369,-20.92674 -54.217369,-43.62884 0,-22.7021 8.084931,-43.62836 54.217369,-43.62836 46.13244,0 54.23442,20.44638 54.23442,43.62836 z"
       sodipodi:nodetypes="zzzzzzzzzz" />
  </g>
</svg>
