<?xml version="1.0" encoding="UTF-8" standalone="no"?>
<!-- Created with Inkscape (http://www.inkscape.org/) -->

<svg
   width="210mm"
   height="297mm"
   viewBox="0 0 210 297"
   version="1.1"
   id="svg8194"
   sodipodi:docname="721_mouth_teeth_a.svg"
   inkscape:version="1.2-beta (1b65182ce9, 2022-04-05)"
   xmlns:inkscape="http://www.inkscape.org/namespaces/inkscape"
   xmlns:sodipodi="http://sodipodi.sourceforge.net/DTD/sodipodi-0.dtd"
   xmlns="http://www.w3.org/2000/svg"
   xmlns:svg="http://www.w3.org/2000/svg">
  <sodipodi:namedview
     id="namedview8196"
     pagecolor="#ffffff"
     bordercolor="#666666"
     borderopacity="1.0"
     inkscape:pageshadow="2"
     inkscape:pageopacity="0"
     inkscape:pagecheckerboard="0"
     inkscape:deskcolor="#d1d1d1"
     inkscape:document-units="mm"
     showgrid="false"
     inkscape:zoom="1.4142136"
     inkscape:cx="544.47221"
     inkscape:cy="674.9334"
     inkscape:window-width="1920"
     inkscape:window-height="991"
     inkscape:window-x="-9"
     inkscape:window-y="-9"
     inkscape:window-maximized="1"
     inkscape:current-layer="layer1" />
  <defs
     id="defs8191" />
  <g
     inkscape:label="Layer 1"
     inkscape:groupmode="layer"
     id="layer1">
    <path
       d="m 176.36726,167.10437 c 0,26.0984 -18.13561,39.58578 -71.4192,39.58578 -53.283597,0 -71.401836,-14.02763 -71.401836,-39.58578 0,-25.55814 17.399865,-40.77669 71.401836,-40.77669 54.00197,0 71.4192,14.67829 71.4192,40.77669 z"
       style="font-variation-settings:'wdth' 100, 'wght' 900;fill:#ffffff;stroke-width:1.27965;stroke-linecap:round;paint-order:stroke fill markers"
       id="path2733" />
    <path
       id="path8463"
       style="font-variation-settings:'wdth' 100, 'wght' 900;fill:#000000;stroke-width:1.19492;stroke-linecap:round;paint-order:stroke fill markers"
       d="m 105.01292,124.39949 c -62.243195,0 -76.466652,18.27266 -76.466652,43.15086 0,24.8782 17.12873,42.32217 76.466652,42.09251 59.33792,-0.22966 76.44082,-17.84231 76.44082,-42.09251 0,-24.2502 -14.19762,-43.15086 -76.44082,-43.15086 z m 70.10942,43.15086 c 0,23.18198 -17.80302,35.16218 -70.10942,35.16218 -52.306406,0 -70.092369,-12.46008 -70.092369,-35.16218 0,-22.7021 17.080764,-36.22002 70.092369,-36.22002 53.01161,0 70.10942,13.03804 70.10942,36.22002 z"
       sodipodi:nodetypes="zzzzzzzzzz" />
    <path
       id="path7945"
       style="font-variation-settings:'wdth' 100, 'wght' 900;fill:#000000;stroke-width:1.19492;stroke-linecap:round;paint-order:stroke fill markers"
       d="m 40.959832,164.51187 c -1.417859,2.2e-4 -8.640191,6.1e-4 -10.131165,0.001 v 6.94014 c 55.581677,0.016 65.486099,-0.0753 65.490577,-3.46955 0.0044,-3.30367 -3.913589,-3.47929 -55.359412,-3.47163 z"
       sodipodi:nodetypes="cccccc" />
  </g>
</svg>
