<?xml version="1.0" encoding="UTF-8" standalone="no"?>
<!-- Created with Inkscape (http://www.inkscape.org/) -->

<svg
   width="210mm"
   height="297mm"
   viewBox="0 0 210 297"
   version="1.1"
   id="svg8194"
   sodipodi:docname="721_eye_left_open_confused.svg"
   inkscape:version="1.2-beta (1b65182ce9, 2022-04-05)"
   xmlns:inkscape="http://www.inkscape.org/namespaces/inkscape"
   xmlns:sodipodi="http://sodipodi.sourceforge.net/DTD/sodipodi-0.dtd"
   xmlns="http://www.w3.org/2000/svg"
   xmlns:svg="http://www.w3.org/2000/svg">
  <sodipodi:namedview
     id="namedview8196"
     pagecolor="#ffffff"
     bordercolor="#666666"
     borderopacity="1.0"
     inkscape:pageshadow="2"
     inkscape:pageopacity="0.0"
     inkscape:pagecheckerboard="0"
     inkscape:deskcolor="#d1d1d1"
     inkscape:document-units="mm"
     showgrid="false"
     inkscape:zoom="1"
     inkscape:cx="515"
     inkscape:cy="647.5"
     inkscape:window-width="1920"
     inkscape:window-height="991"
     inkscape:window-x="-9"
     inkscape:window-y="-9"
     inkscape:window-maximized="1"
     inkscape:current-layer="layer1" />
  <defs
     id="defs8191" />
  <g
     inkscape:label="Layer 1"
     inkscape:groupmode="layer"
     id="layer1">
    <path
       style="fill:#ffffff;stroke:none;stroke-width:0.264583px;stroke-linecap:butt;stroke-linejoin:miter;stroke-opacity:1"
       d="m 110.25209,107.42083 30.69167,8.20208 19.57917,21.16667 9.52499,32.01458 -4.7625,37.83542 -18.25624,22.75416 -40.48125,11.1125 -30.691672,-5.82083 -24.87083,-16.93333 -8.99583,-20.90209 -3.43958,-31.75 17.99166,-41.27499 32.27917,-14.02292 z"
       id="path514" />
    <path
       id="path8463"
       style="font-variation-settings:'wdth' 100, 'wght' 900;fill:#000000;stroke-width:1.19492;stroke-linecap:round;paint-order:stroke fill markers"
       d="m 105.01292,105.87866 c -48.230902,0 -68.529152,35.47058 -68.529152,69.08003 0,33.60945 21.09018,68.55084 68.529152,68.55084 47.43897,0 68.50332,-30.80689 68.50332,-68.55084 0,-37.74395 -20.27242,-69.08003 -68.50332,-69.08003 z m 62.17192,69.08003 c 0,35.6174 -20.18426,61.62051 -62.17192,61.62051 -41.987652,0 -62.154872,-28.59966 -62.154872,-61.62051 0,-33.02085 20.78493,-62.14919 62.154872,-62.14919 41.36994,0 62.17192,26.53179 62.17192,62.14919 z"
       sodipodi:nodetypes="zzzzzzzzzz" />
    <path
       id="path458"
       style="font-variation-settings:'wdth' 100, 'wght' 900;fill:#000000;stroke-width:0.682661;stroke-linecap:round;paint-order:stroke fill markers"
       d="m 106.06572,135.3797 c -27.554412,0 -39.150842,20.26441 -39.150842,39.46557 0,19.20114 12.04886,39.16322 39.150842,39.16322 27.10198,0 39.13609,-17.60003 39.13609,-39.16322 0,-21.5632 -11.58168,-39.46557 -39.13609,-39.46557 z"
       sodipodi:nodetypes="zzzzz" />
    <path
       id="rect14210"
       style="font-variation-settings:'wdth' 109.6, 'wght' 360;fill:#ffffff;stroke-width:0.185208;stroke-linecap:round;paint-order:stroke fill markers"
       d="m 59.572523,67.389685 -21.91907,67.773635 c 39.64208,15.67578 82.154337,29.14838 138.601877,44.12393 l -1.6289,-61.48981 z"
       sodipodi:nodetypes="ccccc" />
    <path
       id="path7945"
       style="font-variation-settings:'wdth' 100, 'wght' 900;fill:#000000;stroke-width:1.19492;stroke-linecap:round;paint-order:stroke fill markers"
       d="M 107.58836,157.414 C 36.077933,133.72625 33.520253,126.46628 30.663453,129.32308 c -2.6695,2.6695 3.24293,10.98493 74.745587,34.67001 23.65743,7.83646 52.99492,13.82395 63.53314,16.64766 15.99144,4.28489 10.39014,-21.03317 5.42086,-19.7766 -4.81713,1.2181 1.31961,14.89616 -1.30527,14.23757 -9.91592,-2.48793 -42.03199,-9.9241 -65.46941,-17.68772 z"
       sodipodi:nodetypes="sssssss" />
  </g>
</svg>
