<?xml version="1.0" encoding="UTF-8" standalone="no"?>
<!-- Created with Inkscape (http://www.inkscape.org/) -->

<svg
   width="210mm"
   height="297mm"
   viewBox="0 0 210 297"
   version="1.1"
   id="svg8194"
   sodipodi:docname="721_mouth_f_v.svg"
   inkscape:version="1.2-beta (1b65182ce9, 2022-04-05)"
   xmlns:inkscape="http://www.inkscape.org/namespaces/inkscape"
   xmlns:sodipodi="http://sodipodi.sourceforge.net/DTD/sodipodi-0.dtd"
   xmlns="http://www.w3.org/2000/svg"
   xmlns:svg="http://www.w3.org/2000/svg">
  <sodipodi:namedview
     id="namedview8196"
     pagecolor="#ffffff"
     bordercolor="#666666"
     borderopacity="1.0"
     inkscape:pageshadow="2"
     inkscape:pageopacity="0.0"
     inkscape:pagecheckerboard="0"
     inkscape:deskcolor="#d1d1d1"
     inkscape:document-units="mm"
     showgrid="false"
     inkscape:zoom="2.0000001"
     inkscape:cx="428.99999"
     inkscape:cy="618.24998"
     inkscape:window-width="1920"
     inkscape:window-height="991"
     inkscape:window-x="-9"
     inkscape:window-y="-9"
     inkscape:window-maximized="1"
     inkscape:current-layer="layer1" />
  <defs
     id="defs8191" />
  <g
     inkscape:label="Layer 1"
     inkscape:groupmode="layer"
     id="layer1">
    <path
       style="fill:#ffffff;stroke:none;stroke-width:0.264583px;stroke-linecap:butt;stroke-linejoin:miter;stroke-opacity:1"
       d="m 110.06666,126.60312 -50.535411,2.11667 -28.04583,9.525 -4.36563,7.01146 -0.92604,10.71562 4.63021,6.74687 6.08542,4.36563 17.46249,-5.02709 16.27188,2.24896 19.31458,3.04271 11.641671,10.58333 4.49791,0.79375 11.50938,-8.33437 16.66875,-4.7625 14.2875,-2.51354 20.90208,0.92604 6.74687,1.98437 5.82084,-7.40833 1.05833,-15.47812 -17.72708,-11.37708 z"
       id="path681" />
    <path
       id="path8463"
       style="font-variation-settings:'wdth' 100, 'wght' 900;fill:#000000;stroke-width:1.19492;stroke-linecap:round;paint-order:stroke fill markers"
       d="m 101.87388,124.39499 c -65.093305,0.07 -78.619485,10.45196 -78.619485,27.28051 0,5.55918 1.87086,10.30065 6.59546,14.16089 1.91392,-0.88018 4.0738,-1.72207 6.46266,-2.4908 -4.51176,-2.79729 -6.68383,-6.5778 -6.68383,-11.67009 0,-16.61666 22.37253,-20.34501 75.384015,-20.34501 53.01152,0 75.40109,5.25166 75.40109,20.34501 0,4.63037 -2.17763,8.23368 -6.7014,11.00604 2.35502,0.80265 4.46933,1.70706 6.35104,2.66082 4.79101,-3.81592 6.68176,-8.41279 6.68176,-13.66686 0,-16.05005 -13.93318,-27.01344 -81.73249,-27.27586 -1.05935,-0.004 -2.10561,-0.006 -3.13881,-0.005 z"
       sodipodi:nodetypes="csccsssccssc" />
    <path
       id="path7945"
       style="font-variation-settings:'wdth' 100, 'wght' 900;fill:#000000;stroke-width:1.19492;stroke-linecap:round;paint-order:stroke fill markers"
       d="m 173.52029,148.76043 c 1.41785,2.2e-4 8.64019,6.1e-4 10.13116,10e-4 v 6.94014 c -55.58168,0.016 -65.4861,-0.0753 -65.49058,-3.46955 -0.004,-3.30367 3.91359,-3.47929 55.35942,-3.47163 z"
       sodipodi:nodetypes="cccccc" />
    <path
       id="path2866"
       style="font-variation-settings:'wdth' 100, 'wght' 900;fill:#000000;stroke-width:1.19492;stroke-linecap:round;paint-order:stroke fill markers"
       d="m 62.238019,159.61146 c 32.4691,0 45.161911,19.60644 42.335371,21.23833 -5.283957,3.05068 -8.816151,-14.30769 -42.335371,-14.30769 -33.51923,0 -40.435927,11.55385 -43.535397,9.76437 -3.33723,-1.92675 11.066287,-16.69501 43.535397,-16.69501 z"
       sodipodi:nodetypes="zszsz" />
    <path
       id="path3594"
       style="font-variation-settings:'wdth' 100, 'wght' 900;fill:#000000;stroke-width:1.19492;stroke-linecap:round;paint-order:stroke fill markers"
       d="m 147.43389,159.61146 c 31.67536,-2.11667 46.49555,14.83323 43.27084,16.69501 -2.93181,1.69268 -9.75161,-12.01333 -43.27084,-9.76437 -33.51923,2.24896 -46.1245,19.88823 -49.223973,18.09875 -3.337228,-1.92675 17.548613,-22.91272 49.223973,-25.02939 z"
       sodipodi:nodetypes="zszsz" />
  </g>
</svg>
