<?xml version="1.0" encoding="UTF-8" standalone="no"?>
<!-- Created with Inkscape (http://www.inkscape.org/) -->

<svg
   width="210mm"
   height="297mm"
   viewBox="0 0 210 297"
   version="1.1"
   id="svg8194"
   sodipodi:docname="721_mouth_teeth_e_smile.svg"
   inkscape:version="1.2-beta (1b65182ce9, 2022-04-05)"
   xmlns:inkscape="http://www.inkscape.org/namespaces/inkscape"
   xmlns:sodipodi="http://sodipodi.sourceforge.net/DTD/sodipodi-0.dtd"
   xmlns="http://www.w3.org/2000/svg"
   xmlns:svg="http://www.w3.org/2000/svg">
  <sodipodi:namedview
     id="namedview8196"
     pagecolor="#ffffff"
     bordercolor="#666666"
     borderopacity="1.0"
     inkscape:pageshadow="2"
     inkscape:pageopacity="0.0"
     inkscape:pagecheckerboard="0"
     inkscape:deskcolor="#d1d1d1"
     inkscape:document-units="mm"
     showgrid="false"
     inkscape:zoom="1.4142136"
     inkscape:cx="577.70622"
     inkscape:cy="575.23135"
     inkscape:window-width="1920"
     inkscape:window-height="991"
     inkscape:window-x="-9"
     inkscape:window-y="-9"
     inkscape:window-maximized="1"
     inkscape:current-layer="layer1" />
  <defs
     id="defs8191" />
  <g
     inkscape:label="Layer 1"
     inkscape:groupmode="layer"
     id="layer1">
    <path
       d="m 188.4366,146.75261 c 0,13.40037 -8.022,40.13328 -83.25225,40.13328 -75.230247,0 -84.819302,-27.01029 -84.819302,-40.13328 0,-15.19601 10.383585,2.31026 84.025552,2.31026 73.64197,0 84.046,-14.37819 84.046,-2.31026 z"
       style="font-variation-settings:'wdth' 100, 'wght' 900;fill:#ffffff;stroke-width:0.994703;stroke-linecap:round;paint-order:stroke fill markers"
       id="path270"
       sodipodi:nodetypes="szsss" />
    <path
       id="path7945"
       style="font-variation-settings:'wdth' 100, 'wght' 900;fill:#e6e6e6;stroke-width:1.19492;stroke-linecap:round;paint-order:stroke fill markers"
       d="m 186.04984,152.89843 -1.5875,6.94014 c -27.02178,9.51488 -67.23411,13.7691 -66.98729,7.94514 0.22002,-5.19152 14.65984,0.9315 68.57479,-14.88528 z"
       sodipodi:nodetypes="ccsc" />
    <path
       id="path8463"
       style="font-variation-settings:'wdth' 100, 'wght' 900;fill:#000000;stroke-width:1.19492;stroke-linecap:round;paint-order:stroke fill markers"
       d="m 105.01292,147.01638 c -61.681935,0 -87.049985,-25.49869 -87.049985,2.9342 0,24.8782 27.71206,40.2055 87.049985,39.97584 59.33792,-0.22966 87.02415,-15.72564 87.02415,-39.97584 0,-26.49527 -25.34222,-2.9342 -87.02415,-2.9342 z m 80.69275,2.9342 c 0,23.18198 -28.38635,33.04551 -80.69275,33.04551 -52.306405,0 -80.675705,-10.34341 -80.675705,-33.04551 0,-16.90235 19.24511,3.99664 80.675705,3.99664 61.4306,0 80.69275,-19.69507 80.69275,-3.99664 z"
       sodipodi:nodetypes="zszszszszs" />
  </g>
</svg>
