<?xml version="1.0" encoding="UTF-8" standalone="no"?>
<!-- Created with Inkscape (http://www.inkscape.org/) -->

<svg
   width="210mm"
   height="297mm"
   viewBox="0 0 210 297"
   version="1.1"
   id="svg8194"
   sodipodi:docname="721_mouth_teeth_i_worried.svg"
   inkscape:version="1.2-beta (1b65182ce9, 2022-04-05)"
   xmlns:inkscape="http://www.inkscape.org/namespaces/inkscape"
   xmlns:sodipodi="http://sodipodi.sourceforge.net/DTD/sodipodi-0.dtd"
   xmlns="http://www.w3.org/2000/svg"
   xmlns:svg="http://www.w3.org/2000/svg">
  <sodipodi:namedview
     id="namedview8196"
     pagecolor="#ffffff"
     bordercolor="#666666"
     borderopacity="1.0"
     inkscape:pageshadow="2"
     inkscape:pageopacity="0.0"
     inkscape:pagecheckerboard="0"
     inkscape:deskcolor="#d1d1d1"
     inkscape:document-units="mm"
     showgrid="false"
     inkscape:zoom="2.0000001"
     inkscape:cx="395.99998"
     inkscape:cy="646.24997"
     inkscape:window-width="1920"
     inkscape:window-height="991"
     inkscape:window-x="-9"
     inkscape:window-y="-9"
     inkscape:window-maximized="1"
     inkscape:current-layer="layer1"
     showguides="false" />
  <defs
     id="defs8191" />
  <g
     inkscape:label="Layer 1"
     inkscape:groupmode="layer"
     id="layer1">
    <path
       id="path9493"
       style="font-variation-settings:'wght' 50;fill:#ffffff;fill-opacity:1;stroke:none;stroke-width:0.175466;stroke-linecap:round;paint-order:stroke fill markers"
       d="m 36.127586,146.61985 -9.427366,10.66426 0.533209,26.06191 5.371602,8.07727 19.004706,8.17235 18.055606,-4.57624 34.790297,-8.27253 28.87529,9.81299 21.74761,-0.7682 19.55404,-4.29284 8.03951,-5.6477 -2.11493,-31.04369 -14.93525,-9.5008 -29.49367,0.27018 -29.31838,6.05445 -39.001497,-8.05342 z"
       sodipodi:nodetypes="ccccccccccccccccc" />
    <path
       id="path7945"
       style="font-variation-settings:'wdth' 100, 'wght' 900;fill:#000000;stroke-width:1.19492;stroke-linecap:round;paint-order:stroke fill markers"
       d="m 181.35783,168.77368 v 6.94222 h -1.86707 v -5.2e-4 c -50.16745,0.003 -59.45614,-0.20511 -59.46045,-3.47007 -0.004,-3.30368 3.91374,-3.47929 55.35941,-3.47163 0.57394,9e-5 2.39004,4e-4 4.10104,5.2e-4 v -5.2e-4 z" />
    <path
       id="path8463"
       style="font-variation-settings:'wdth' 100, 'wght' 900;fill:#000000;stroke-width:1.19492;stroke-linecap:round;paint-order:stroke fill markers"
       d="m 105.01292,150.67073 c -9.110019,0 -81.758319,-30.63081 -81.758319,20.39669 0,51.0275 70.49061,22.55697 81.758319,22.51336 11.26771,-0.0436 81.73249,26.31195 81.73249,-22.51336 0,-48.8253 -72.62247,-20.39669 -81.73249,-20.39669 z m 75.40109,20.39669 c 0,40.91229 -63.50584,15.58303 -75.40109,15.58303 -11.895249,0 -75.384039,26.56528 -75.384039,-15.58303 0,-42.1483 65.58991,-13.46585 75.384039,-13.46585 9.79413,0 75.40109,-27.44644 75.40109,13.46585 z"
       sodipodi:nodetypes="zzzzzzzzzz" />
  </g>
</svg>
