<?xml version="1.0" encoding="UTF-8" standalone="no"?>
<!-- Created with Inkscape (http://www.inkscape.org/) -->

<svg
   width="210mm"
   height="297mm"
   viewBox="0 0 210 297"
   version="1.1"
   id="svg8194"
   sodipodi:docname="721_mouth_teeth_i_worried.svg"
   inkscape:version="1.2-beta (1b65182ce9, 2022-04-05)"
   xmlns:inkscape="http://www.inkscape.org/namespaces/inkscape"
   xmlns:sodipodi="http://sodipodi.sourceforge.net/DTD/sodipodi-0.dtd"
   xmlns="http://www.w3.org/2000/svg"
   xmlns:svg="http://www.w3.org/2000/svg">
  <sodipodi:namedview
     id="namedview8196"
     pagecolor="#ffffff"
     bordercolor="#666666"
     borderopacity="1.0"
     inkscape:pageshadow="2"
     inkscape:pageopacity="0.0"
     inkscape:pagecheckerboard="0"
     inkscape:deskcolor="#d1d1d1"
     inkscape:document-units="mm"
     showgrid="false"
     inkscape:zoom="1.4142136"
     inkscape:cx="514.06663"
     inkscape:cy="645.23494"
     inkscape:window-width="1920"
     inkscape:window-height="991"
     inkscape:window-x="-9"
     inkscape:window-y="-9"
     inkscape:window-maximized="1"
     inkscape:current-layer="layer1"
     showguides="false" />
  <defs
     id="defs8191" />
  <g
     inkscape:label="Layer 1"
     inkscape:groupmode="layer"
     id="layer1">
    <path
       id="path9493"
       style="font-variation-settings:'wght' 50;fill:#ffffff;fill-opacity:1;stroke:none;stroke-width:0.175466;stroke-linecap:round;paint-order:stroke fill markers"
       d="m 35.68937,145.68554 -8.98915,11.59857 0.533209,26.06191 5.371602,8.07727 37.060312,3.59611 34.790297,-8.27253 50.6229,9.04479 19.55404,-4.29284 8.03951,-5.6477 -0.26285,-33.82181 -16.78733,-6.72268 -29.49367,0.27018 -29.31838,6.05445 -39.001497,-8.05342 z"
       sodipodi:nodetypes="ccccccccccccccc" />
    <path
       id="path7945"
       style="font-variation-settings:'wdth' 100, 'wght' 900;fill:#000000;stroke-width:1.19492;stroke-linecap:round;paint-order:stroke fill markers"
       d="m 28.642179,168.77368 v 6.94222 h 1.867069 v -5.2e-4 c 50.167449,0.003 59.456144,-0.20511 59.460453,-3.47007 0.004,-3.30368 -3.913744,-3.47929 -55.359411,-3.47163 -0.573942,9e-5 -2.390041,4e-4 -4.101042,5.2e-4 v -5.2e-4 z" />
    <path
       id="path8463"
       style="font-variation-settings:'wdth' 100, 'wght' 900;fill:#000000;stroke-width:1.19492;stroke-linecap:round;paint-order:stroke fill markers"
       d="m 105.01292,150.67073 c -9.110017,0 -81.758319,-30.63081 -81.758319,20.39669 0,51.0275 70.490606,22.55697 81.758319,22.51336 11.26771,-0.0436 81.73249,26.31195 81.73249,-22.51336 0,-48.8253 -72.62247,-20.39669 -81.73249,-20.39669 z m 75.40109,20.39669 c 0,40.91229 -63.50584,15.58303 -75.40109,15.58303 -11.895247,0 -75.384036,26.56528 -75.384036,-15.58303 0,-42.1483 65.589908,-13.46585 75.384036,-13.46585 9.79413,0 75.40109,-27.44644 75.40109,13.46585 z"
       sodipodi:nodetypes="zzzzzzzzzz" />
  </g>
</svg>
