<?xml version="1.0" encoding="UTF-8" standalone="no"?>
<!-- Created with Inkscape (http://www.inkscape.org/) -->

<svg
   width="210mm"
   height="297mm"
   viewBox="0 0 210 297"
   version="1.1"
   id="svg8194"
   sodipodi:docname="721_mouth_teeth_o_worried.svg"
   inkscape:version="1.2-beta (1b65182ce9, 2022-04-05)"
   xmlns:inkscape="http://www.inkscape.org/namespaces/inkscape"
   xmlns:sodipodi="http://sodipodi.sourceforge.net/DTD/sodipodi-0.dtd"
   xmlns="http://www.w3.org/2000/svg"
   xmlns:svg="http://www.w3.org/2000/svg">
  <sodipodi:namedview
     id="namedview8196"
     pagecolor="#ffffff"
     bordercolor="#666666"
     borderopacity="1.0"
     inkscape:pageshadow="2"
     inkscape:pageopacity="0.0"
     inkscape:pagecheckerboard="0"
     inkscape:deskcolor="#d1d1d1"
     inkscape:document-units="mm"
     showgrid="false"
     inkscape:zoom="1.4142136"
     inkscape:cx="488.61079"
     inkscape:cy="743.52278"
     inkscape:window-width="1920"
     inkscape:window-height="991"
     inkscape:window-x="-9"
     inkscape:window-y="-9"
     inkscape:window-maximized="1"
     inkscape:current-layer="layer1" />
  <defs
     id="defs8191" />
  <g
     inkscape:label="Layer 1"
     inkscape:groupmode="layer"
     id="layer1">
    <path
       id="path9493"
       style="font-variation-settings:'wght' 50;fill:#ffffff;fill-opacity:1;stroke:none;stroke-width:0.238455;stroke-linecap:round;paint-order:stroke fill markers"
       d="m 37.995731,159.09589 -11.083445,17.94039 2.201932,47.4158 9.532004,8.12719 29.655104,0.43354 35.145884,-14.44463 48.92665,16.54735 19.57863,-7.09008 11.61127,-12.73886 -5.09713,-44.38006 -13.17937,-15.24134 -23.17938,1.6854 -35.9299,11.38529 -45.185831,-15.01811 z"
       sodipodi:nodetypes="ccccccccccccccc" />
    <path
       id="path8463"
       style="font-variation-settings:'wdth' 100, 'wght' 900;fill:#000000;stroke-width:1.37697;stroke-linecap:round;paint-order:stroke fill markers"
       d="m 105.01292,164.32877 c -9.110017,0 -81.758319,-43.45784 -81.758319,32.00389 0,75.46172 70.490606,26.7701 81.758319,26.71219 11.26771,-0.0579 81.73249,46.57053 81.73249,-26.71219 0,-73.28271 -72.62247,-32.00389 -81.73249,-32.00389 z m 75.40109,32.00389 c 0,65.2101 -63.50584,20.15513 -75.40109,20.15513 -11.895247,0 -75.384036,47.19926 -75.384036,-20.15513 0,-67.35439 65.589908,-24.917 75.384036,-24.917 9.79413,0 75.40109,-40.2931 75.40109,24.917 z"
       sodipodi:nodetypes="zzzzzzzzzz" />
    <path
       id="path7945"
       style="font-variation-settings:'wdth' 100, 'wght' 900;fill:#000000;stroke-width:1.19492;stroke-linecap:round;paint-order:stroke fill markers"
       d="M 37.062336,192.972 H 27.029254 l -1.020676,6.942 h 11.053758 l 1.867069,3.2e-4 v -5.2e-4 c 50.167449,0.003 59.456148,-0.20511 59.460458,-3.47007 0.004,-3.30368 -3.91375,-3.47929 -55.359416,-3.47163 -0.573942,9e-5 -2.390041,4e-4 -4.101042,5.2e-4 v -5.2e-4 z"
       sodipodi:nodetypes="cccccccsccc" />
  </g>
</svg>
