<?xml version="1.0" encoding="UTF-8" standalone="no"?>
<!-- Created with Inkscape (http://www.inkscape.org/) -->

<svg
   width="210mm"
   height="297mm"
   viewBox="0 0 210 297"
   version="1.1"
   id="svg8194"
   sodipodi:docname="721_mouth_teeth_a_worried.svg"
   inkscape:version="1.2-beta (1b65182ce9, 2022-04-05)"
   xmlns:inkscape="http://www.inkscape.org/namespaces/inkscape"
   xmlns:sodipodi="http://sodipodi.sourceforge.net/DTD/sodipodi-0.dtd"
   xmlns="http://www.w3.org/2000/svg"
   xmlns:svg="http://www.w3.org/2000/svg">
  <sodipodi:namedview
     id="namedview8196"
     pagecolor="#ffffff"
     bordercolor="#666666"
     borderopacity="1.0"
     inkscape:pageshadow="2"
     inkscape:pageopacity="0.0"
     inkscape:pagecheckerboard="0"
     inkscape:deskcolor="#d1d1d1"
     inkscape:document-units="mm"
     showgrid="false"
     inkscape:zoom="1.4142136"
     inkscape:cx="630.03213"
     inkscape:cy="720.18824"
     inkscape:window-width="1920"
     inkscape:window-height="991"
     inkscape:window-x="-9"
     inkscape:window-y="-9"
     inkscape:window-maximized="1"
     inkscape:current-layer="layer1" />
  <defs
     id="defs8191" />
  <g
     inkscape:label="Layer 1"
     inkscape:groupmode="layer"
     id="layer1">
    <path
       id="path9493"
       style="font-variation-settings:'wght' 50;fill:#ffffff;fill-opacity:1;stroke:none;stroke-width:0.197436;stroke-linecap:round;paint-order:stroke fill markers"
       d="m 49.362132,143.31438 -18.128002,14.0111 0.521244,26.90059 20.951162,14.12063 19.336192,-0.89419 35.202032,-9.05842 43.4684,12.66053 17.12791,-4.21726 c 8.36986,-12.30064 13.93905,-19.71658 9.86975,-24.89519 l -1.87059,-20.34672 -14.42281,-10.46799 -20.42846,4.55303 -34.81773,9.18829 -34.950136,-10.97666 z"
       sodipodi:nodetypes="ccccccccccccccc" />
    <path
       id="path8463"
       style="font-variation-settings:'wdth' 100, 'wght' 900;fill:#000000;stroke-width:1.19492;stroke-linecap:round;paint-order:stroke fill markers"
       d="m 105.01292,150.67073 c -9.110017,0 -76.466652,-38.01805 -76.466652,18.8092 0,56.82724 65.198939,24.14446 76.466652,24.10085 11.26771,-0.0436 76.44082,31.08547 76.44082,-24.10085 0,-55.18632 -67.3308,-18.8092 -76.44082,-18.8092 z m 70.10942,18.8092 c 0,46.71203 -58.21417,17.17052 -70.10942,17.17052 -11.895247,0 -70.092369,30.02918 -70.092369,-17.17052 0,-47.1997 60.298241,-11.87836 70.092369,-11.87836 9.79413,0 70.10942,-34.83368 70.10942,11.87836 z"
       sodipodi:nodetypes="zzzzzzzzzz" />
    <path
       id="path7945"
       style="font-variation-settings:'wdth' 100, 'wght' 900;fill:#000000;stroke-width:1.19492;stroke-linecap:round;paint-order:stroke fill markers"
       d="m 32.692061,167.67762 v 6.94221 h 4.167188 v -5.2e-4 c 50.167499,0.003 59.456144,-0.2051 59.460453,-3.47007 0.004,-3.30367 -3.913692,-3.47928 -55.359411,-3.47162 -0.573942,9e-5 -2.390039,3.8e-4 -4.101042,5.1e-4 v -5.1e-4 z" />
  </g>
</svg>
