<?xml version="1.0" encoding="UTF-8" standalone="no"?>
<!-- Created with Inkscape (http://www.inkscape.org/) -->

<svg
   width="210mm"
   height="297mm"
   viewBox="0 0 210 297"
   version="1.1"
   id="svg8194"
   sodipodi:docname="721_mouth_teeth_e_worried.svg"
   inkscape:version="1.2-beta (1b65182ce9, 2022-04-05)"
   xmlns:inkscape="http://www.inkscape.org/namespaces/inkscape"
   xmlns:sodipodi="http://sodipodi.sourceforge.net/DTD/sodipodi-0.dtd"
   xmlns="http://www.w3.org/2000/svg"
   xmlns:svg="http://www.w3.org/2000/svg">
  <sodipodi:namedview
     id="namedview8196"
     pagecolor="#ffffff"
     bordercolor="#666666"
     borderopacity="1.0"
     inkscape:pageshadow="2"
     inkscape:pageopacity="0.0"
     inkscape:pagecheckerboard="0"
     inkscape:deskcolor="#d1d1d1"
     inkscape:document-units="mm"
     showgrid="false"
     inkscape:zoom="1.4142136"
     inkscape:cx="537.40114"
     inkscape:cy="659.37706"
     inkscape:window-width="1920"
     inkscape:window-height="991"
     inkscape:window-x="-9"
     inkscape:window-y="-9"
     inkscape:window-maximized="1"
     inkscape:current-layer="layer1" />
  <defs
     id="defs8191" />
  <g
     inkscape:label="Layer 1"
     inkscape:groupmode="layer"
     id="layer1">
    <path
       id="path9493"
       style="font-variation-settings:'wght' 50;fill:#ffffff;fill-opacity:1;stroke:none;stroke-width:0.188061;stroke-linecap:round;paint-order:stroke fill markers"
       d="m 35.522715,141.86532 -14.805911,10.73817 0.617058,20.61673 14.854287,13.11628 27.595862,1.62235 40.496459,-10.00322 51.69395,10.76977 22.62898,-2.68534 9.30375,-10.33326 -2.93347,-26.76485 -16.79791,-8.75267 -30.06525,1.39072 -32.28195,7.69349 -44.193557,-8.55517 z"
       sodipodi:nodetypes="ccccccccccccccc" />
    <path
       id="path7945"
       style="font-variation-settings:'wdth' 100, 'wght' 900;fill:#e6e6e6;stroke-width:1.19492;stroke-linecap:round;paint-order:stroke fill markers"
       d="m 187.89135,161.75766 v 6.9422 h -6.81302 v -5.1e-4 c -50.1675,0.003 -59.45615,-0.2051 -59.46046,-3.47007 -0.004,-3.30368 3.9137,-3.47928 55.35942,-3.47162 0.57394,9e-5 2.39003,3.8e-4 4.10104,5e-4 v -5e-4 z"
       sodipodi:nodetypes="cccccsccc" />
    <path
       id="path8463"
       style="font-variation-settings:'wdth' 100, 'wght' 900;fill:#000000;stroke-width:1.19492;stroke-linecap:round;paint-order:stroke fill markers"
       d="m 105.01292,145.37906 c -9.110016,0 -87.049986,-31.09717 -87.049986,18.8092 0,49.90638 75.78227,18.8528 87.049986,18.80919 11.26771,-0.0436 87.02416,29.26776 87.02416,-18.80919 0,-48.07695 -77.91414,-18.8092 -87.02416,-18.8092 z m 80.69276,18.8092 c 0,39.0431 -68.79751,11.87886 -80.69276,11.87886 -11.895246,0 -80.862816,29.33995 -80.675706,-11.87886 0.18712,-41.2188 70.88158,-11.87836 80.675706,-11.87836 9.79413,0 80.69276,-27.16474 80.69276,11.87836 z"
       sodipodi:nodetypes="zzzzzzzzzz" />
  </g>
</svg>
