<?xml version="1.0" encoding="UTF-8" standalone="no"?>
<!-- Created with Inkscape (http://www.inkscape.org/) -->

<svg
   width="210mm"
   height="297mm"
   viewBox="0 0 210 297"
   version="1.1"
   id="svg8194"
   sodipodi:docname="721_mouth_open_o.svg"
   inkscape:version="1.2-beta (1b65182ce9, 2022-04-05)"
   xmlns:inkscape="http://www.inkscape.org/namespaces/inkscape"
   xmlns:sodipodi="http://sodipodi.sourceforge.net/DTD/sodipodi-0.dtd"
   xmlns="http://www.w3.org/2000/svg"
   xmlns:svg="http://www.w3.org/2000/svg">
  <sodipodi:namedview
     id="namedview8196"
     pagecolor="#ffffff"
     bordercolor="#666666"
     borderopacity="1.0"
     inkscape:pageshadow="2"
     inkscape:pageopacity="0.0"
     inkscape:pagecheckerboard="0"
     inkscape:deskcolor="#d1d1d1"
     inkscape:document-units="mm"
     showgrid="false"
     inkscape:zoom="1.4142136"
     inkscape:cx="665.38746"
     inkscape:cy="675.64051"
     inkscape:window-width="1920"
     inkscape:window-height="991"
     inkscape:window-x="-9"
     inkscape:window-y="-9"
     inkscape:window-maximized="1"
     inkscape:current-layer="layer1" />
  <defs
     id="defs8191" />
  <g
     inkscape:label="Layer 1"
     inkscape:groupmode="layer"
     id="layer1">
    <path
       style="fill:#a82626;fill-opacity:1;stroke:none;stroke-width:0.261822px;stroke-linecap:butt;stroke-linejoin:miter;stroke-opacity:1"
       d="m 101.7157,130.51584 -19.098983,0.74028 -15.279186,3.55334 -11.575141,9.17947 -6.945084,9.77168 -2.778034,17.32255 1.273265,14.95365 5.440316,18.95115 13.542915,11.54836 11.112136,4.44167 21.761265,2.66501 23.960541,-1.48056 25.92831,-8.58724 12.73266,-15.39782 2.08353,-19.39532 -1.38902,-23.39283 -13.54292,-18.65504 -19.33048,-5.18196 z"
       id="path18886" />
    <path
       id="path20173"
       style="font-variation-settings:'wght' 50;fill:#ea2c4f;fill-opacity:1;stroke-width:0.239782;stroke-linecap:round;paint-order:stroke fill markers"
       d="m 135.02813,193.36799 c -14.51422,8e-5 -24.2248,9.71117 -24.22488,24.22539 10e-6,1.9637 0.17909,3.83843 0.52245,5.61413 l 21.5253,-2.35593 22.29632,-17.7059 c -4.16055,-6.1435 -11.24116,-9.77764 -20.11919,-9.77769 z" />
    <path
       id="path8463"
       style="font-variation-settings:'wdth' 100, 'wght' 900;fill:#000000;stroke-width:1.19492;stroke-linecap:round;paint-order:stroke fill markers"
       d="m 105.01292,124.39949 c -52.728817,0 -60.591652,25.681 -60.591652,50.5592 0,24.8782 6.539173,50.76838 60.591652,50.55917 54.05248,-0.2092 60.56582,-26.30897 60.56582,-50.55917 0,-24.2502 -7.837,-50.5592 -60.56582,-50.5592 z m 54.23442,50.5592 c 0,23.18198 -6.9551,43.62884 -54.23442,43.62884 -47.279323,0 -54.217369,-20.92674 -54.217369,-43.62884 0,-22.7021 8.084931,-43.62836 54.217369,-43.62836 46.13244,0 54.23442,20.44638 54.23442,43.62836 z"
       sodipodi:nodetypes="zzzzzzzzzz" />
  </g>
</svg>
