<?xml version="1.0" encoding="UTF-8" standalone="no"?>
<!-- Created with Inkscape (http://www.inkscape.org/) -->

<svg
   width="210mm"
   height="297mm"
   viewBox="0 0 210 297"
   version="1.1"
   id="svg8194"
   sodipodi:docname="721_mouth_teeth_a_frown.svg"
   inkscape:version="1.2-beta (1b65182ce9, 2022-04-05)"
   xmlns:inkscape="http://www.inkscape.org/namespaces/inkscape"
   xmlns:sodipodi="http://sodipodi.sourceforge.net/DTD/sodipodi-0.dtd"
   xmlns="http://www.w3.org/2000/svg"
   xmlns:svg="http://www.w3.org/2000/svg">
  <sodipodi:namedview
     id="namedview8196"
     pagecolor="#ffffff"
     bordercolor="#666666"
     borderopacity="1.0"
     inkscape:pageshadow="2"
     inkscape:pageopacity="0.0"
     inkscape:pagecheckerboard="0"
     inkscape:deskcolor="#d1d1d1"
     inkscape:document-units="mm"
     showgrid="false"
     inkscape:zoom="1.4142136"
     inkscape:cx="482.95392"
     inkscape:cy="701.09635"
     inkscape:window-width="1920"
     inkscape:window-height="991"
     inkscape:window-x="-9"
     inkscape:window-y="-9"
     inkscape:window-maximized="1"
     inkscape:current-layer="layer1"
     showguides="false" />
  <defs
     id="defs8191" />
  <g
     inkscape:label="Layer 1"
     inkscape:groupmode="layer"
     id="layer1">
    <path
       d="m 177.58333,220.36842 c 0,-24.4517 -15.82465,-79.5075 -73.19676,-79.5075 -57.372112,0 -73.178953,55.56196 -73.178953,79.5075 0,17.82813 9.043199,-4.21554 73.178953,-4.21554 64.13576,0 73.19676,20.77381 73.19676,4.21554 z"
       style="font-variation-settings:'wdth' 100, 'wght' 900;fill:#ffffff;stroke-width:1.25394;stroke-linecap:round;paint-order:stroke fill markers"
       id="path270" />
    <path
       id="path8463"
       style="font-variation-settings:'wdth' 100, 'wght' 900;fill:#000000;stroke-width:1.19492;stroke-linecap:round;paint-order:stroke fill markers"
       d="m 105.01292,221.28137 c -61.681934,0 -76.466652,25.49869 -76.466652,-2.9342 0,-24.8782 15.505132,-82.30917 76.466652,-82.30917 60.96152,0 76.44082,58.05897 76.44082,82.30917 0,29.48869 -14.75889,2.9342 -76.44082,2.9342 z m 70.10942,-2.9342 c 0,-23.18198 -15.15718,-75.37884 -70.10942,-75.37884 -54.952239,0 -70.092369,52.67674 -70.092369,75.37884 0,16.90235 8.661769,-3.99664 70.092369,-3.99664 61.4306,0 70.10942,19.69507 70.10942,3.99664 z"
       sodipodi:nodetypes="zszszszszs" />
    <path
       id="path7945"
       style="font-variation-settings:'wdth' 100, 'wght' 900;fill:#000000;stroke-width:1.19492;stroke-linecap:round;paint-order:stroke fill markers"
       d="m 32.971666,199.53219 1.5875,-6.94014 c 27.021782,-9.51488 67.234084,-13.7691 66.987264,-7.94514 -0.22001,5.19152 -14.659819,-0.9315 -68.574764,14.88528 z"
       sodipodi:nodetypes="ccsc" />
  </g>
</svg>
