<?xml version="1.0" encoding="UTF-8" standalone="no"?>
<!-- Created with Inkscape (http://www.inkscape.org/) -->

<svg
   width="210mm"
   height="297mm"
   viewBox="0 0 210 297"
   version="1.1"
   id="svg8194"
   sodipodi:docname="721_mouth_teeth_o_frown.svg"
   inkscape:version="1.2-beta (1b65182ce9, 2022-04-05)"
   xmlns:inkscape="http://www.inkscape.org/namespaces/inkscape"
   xmlns:sodipodi="http://sodipodi.sourceforge.net/DTD/sodipodi-0.dtd"
   xmlns="http://www.w3.org/2000/svg"
   xmlns:svg="http://www.w3.org/2000/svg">
  <sodipodi:namedview
     id="namedview8196"
     pagecolor="#ffffff"
     bordercolor="#666666"
     borderopacity="1.0"
     inkscape:pageshadow="2"
     inkscape:pageopacity="0.0"
     inkscape:pagecheckerboard="0"
     inkscape:deskcolor="#d1d1d1"
     inkscape:document-units="mm"
     showgrid="false"
     inkscape:zoom="1"
     inkscape:cx="651"
     inkscape:cy="784.5"
     inkscape:window-width="1920"
     inkscape:window-height="991"
     inkscape:window-x="-9"
     inkscape:window-y="-9"
     inkscape:window-maximized="1"
     inkscape:current-layer="layer1" />
  <defs
     id="defs8191" />
  <g
     inkscape:label="Layer 1"
     inkscape:groupmode="layer"
     id="layer1">
    <path
       d="m 166.59828,229.61352 c 0,-29.53059 -7.60037,-90.73043 -61.83551,-90.73043 -52.925516,0 -61.821748,61.81113 -61.821748,90.73043 0,21.53123 12.277459,-0.78811 61.821748,-0.78811 49.5443,0 61.83551,20.78572 61.83551,0.78811 z"
       style="font-variation-settings:'wdth' 100, 'wght' 900;fill:#ffffff;stroke-width:1.21117;stroke-linecap:round;paint-order:stroke fill markers"
       id="path270"
       sodipodi:nodetypes="sssss" />
    <path
       id="path8463"
       style="font-variation-settings:'wdth' 100, 'wght' 900;fill:#000000;stroke-width:1.19492;stroke-linecap:round;paint-order:stroke fill markers"
       d="m 105.01292,231.8652 c -43.161089,0 -65.883319,25.49869 -65.883319,-2.9342 0,-24.8782 8.39643,-93.115 65.883319,-92.8925 57.48689,0.2225 65.85749,68.6423 65.85749,92.8925 0,29.48869 -22.6964,2.9342 -65.85749,2.9342 z m 59.52609,-2.9342 c 0,-23.18198 -7.21969,-85.96217 -59.52609,-85.96217 -52.306409,0 -59.509039,63.26007 -59.509039,85.96217 0,16.90235 16.3316,-3.99664 59.509039,-3.99664 43.17744,0 59.52609,19.69507 59.52609,3.99664 z"
       sodipodi:nodetypes="zszszszszs" />
    <path
       id="path7945"
       style="font-variation-settings:'wdth' 100, 'wght' 900;fill:#000000;stroke-width:1.19492;stroke-linecap:round;paint-order:stroke fill markers"
       d="m 163.26968,206.32654 -1.5875,-6.94014 c -26.08634,-8.95361 -56.65076,-13.7691 -56.40394,-7.94514 0.22001,5.19152 9.31499,0.37812 57.99144,14.88528 z"
       sodipodi:nodetypes="ccsc" />
  </g>
</svg>
