<?xml version="1.0" encoding="UTF-8" standalone="no"?>
<!-- Created with Inkscape (http://www.inkscape.org/) -->

<svg
   width="210mm"
   height="297mm"
   viewBox="0 0 210 297"
   version="1.1"
   id="svg8194"
   sodipodi:docname="721_mouth_f_v_smile.svg"
   inkscape:version="1.2-beta (1b65182ce9, 2022-04-05)"
   xmlns:inkscape="http://www.inkscape.org/namespaces/inkscape"
   xmlns:sodipodi="http://sodipodi.sourceforge.net/DTD/sodipodi-0.dtd"
   xmlns="http://www.w3.org/2000/svg"
   xmlns:svg="http://www.w3.org/2000/svg">
  <sodipodi:namedview
     id="namedview8196"
     pagecolor="#ffffff"
     bordercolor="#666666"
     borderopacity="1.0"
     inkscape:pageshadow="2"
     inkscape:pageopacity="0.0"
     inkscape:pagecheckerboard="0"
     inkscape:deskcolor="#d1d1d1"
     inkscape:document-units="mm"
     showgrid="false"
     inkscape:zoom="1.4142136"
     inkscape:cx="508.40976"
     inkscape:cy="643.1136"
     inkscape:window-width="1920"
     inkscape:window-height="991"
     inkscape:window-x="-9"
     inkscape:window-y="-9"
     inkscape:window-maximized="1"
     inkscape:current-layer="layer1" />
  <defs
     id="defs8191" />
  <g
     inkscape:label="Layer 1"
     inkscape:groupmode="layer"
     id="layer1">
    <path
       id="path270"
       style="font-variation-settings:'wdth' 100, 'wght' 900;fill:#ffffff;stroke-width:1.08128;stroke-linecap:round;paint-order:stroke fill markers"
       d="m 28.666984,140.11444 c -2.668519,0.0573 -3.446301,1.33022 -3.446301,4.76044 0,7.86369 3.963637,20.71062 14.97893,31.94533 5.755826,-1.34455 12.5612,-2.21846 20.43958,-2.21846 24.192877,0 37.403543,10.88381 41.398507,17.108 7.98602,-6.84513 23.7181,-15.76624 43.79733,-17.108 1.97969,-0.1323 3.89351,-0.19023 5.74125,-0.18191 6.87964,0.031 12.84013,0.98043 17.87126,2.41484 10.93047,-11.16842 14.87093,-23.95854 14.87093,-31.9598 0,-11.3276 -9.8485,2.88354 -79.55846,2.88354 -50.104027,0 -69.273478,-7.79043 -76.093026,-7.64398 z"
       sodipodi:nodetypes="sscscsscsss" />
    <path
       id="path7945"
       style="font-variation-settings:'wdth' 100, 'wght' 900;fill:#000000;stroke-width:1.19492;stroke-linecap:round;paint-order:stroke fill markers"
       d="m 24.504711,156.22774 1.5875,6.94014 c 27.021782,9.51488 67.234104,13.7691 66.987286,7.94514 -0.220016,-5.19152 -14.659841,0.9315 -68.574786,-14.88528 z"
       sodipodi:nodetypes="ccsc" />
    <path
       id="path2866"
       style="font-variation-settings:'wdth' 100, 'wght' 900;fill:#000000;stroke-width:1.19492;stroke-linecap:round;paint-order:stroke fill markers"
       d="m 60.638947,174.60162 c 32.469099,0 45.161913,19.60644 42.335373,21.23833 -5.283954,3.05068 -8.816154,-14.30769 -42.335373,-14.30769 -33.51923,0 -40.435927,11.55385 -43.535397,9.76437 -3.33723,-1.92675 11.066287,-16.69501 43.535397,-16.69501 z"
       sodipodi:nodetypes="zszsz" />
    <path
       id="path3594"
       style="font-variation-settings:'wdth' 100, 'wght' 900;fill:#000000;stroke-width:1.19492;stroke-linecap:round;paint-order:stroke fill markers"
       d="m 145.83482,174.60162 c 31.67536,-2.11667 46.49555,14.83323 43.27084,16.69501 -2.93181,1.69268 -9.75161,-12.01333 -43.27084,-9.76437 -33.51923,2.24896 -46.124504,19.88823 -49.223974,18.09875 -3.33723,-1.92675 17.548614,-22.91272 49.223974,-25.02939 z"
       sodipodi:nodetypes="zszsz" />
    <path
       id="path3057"
       style="font-variation-settings:'wdth' 100, 'wght' 900;fill:#000000;stroke-width:1.19492;stroke-linecap:round;paint-order:stroke fill markers"
       d="m 32.03267,136.50536 c -6.184982,-0.0259 -8.778275,3.22712 -8.778275,13.44518 0,9.86228 3.528434,19.88518 11.478369,28.37914 2.345188,-0.75388 4.916062,-1.43316 7.719425,-1.99936 -8.70289,-7.51342 -12.823507,-16.78816 -12.823507,-26.37978 0,-16.90234 13.953491,3.99665 75.384028,3.99665 61.43054,0 75.40108,-20.63051 75.40108,-3.99665 0,9.72856 -4.06931,18.9743 -12.65607,26.43043 2.50736,0.63337 4.79961,1.38908 6.87865,2.22001 8.39887,-8.60933 12.10882,-18.78132 12.10882,-28.65044 0,-27.50429 -20.05061,-2.93419 -81.73248,-2.93419 -39.514948,0 -61.954637,-10.46487 -72.98004,-10.51099 z"
       sodipodi:nodetypes="ssccsssccsss" />
  </g>
</svg>
