<?xml version="1.0" encoding="UTF-8" standalone="no"?>
<!-- Created with Inkscape (http://www.inkscape.org/) -->

<svg
   width="210mm"
   height="297mm"
   viewBox="0 0 210 297"
   version="1.1"
   id="svg8194"
   sodipodi:docname="721_mouth_open_oo.svg"
   inkscape:version="1.2-beta (1b65182ce9, 2022-04-05)"
   xmlns:inkscape="http://www.inkscape.org/namespaces/inkscape"
   xmlns:sodipodi="http://sodipodi.sourceforge.net/DTD/sodipodi-0.dtd"
   xmlns="http://www.w3.org/2000/svg"
   xmlns:svg="http://www.w3.org/2000/svg">
  <sodipodi:namedview
     id="namedview8196"
     pagecolor="#ffffff"
     bordercolor="#666666"
     borderopacity="1.0"
     inkscape:pageshadow="2"
     inkscape:pageopacity="0.0"
     inkscape:pagecheckerboard="0"
     inkscape:deskcolor="#d1d1d1"
     inkscape:document-units="mm"
     showgrid="false"
     inkscape:zoom="1.4142136"
     inkscape:cx="446.89146"
     inkscape:cy="615.53642"
     inkscape:window-width="1920"
     inkscape:window-height="991"
     inkscape:window-x="-9"
     inkscape:window-y="-9"
     inkscape:window-maximized="1"
     inkscape:current-layer="layer1" />
  <defs
     id="defs8191" />
  <g
     inkscape:label="Layer 1"
     inkscape:groupmode="layer"
     id="layer1">
    <path
       style="fill:#a82626;stroke:none;stroke-width:0.259263px;stroke-linecap:butt;stroke-linejoin:miter;stroke-opacity:1;fill-opacity:1"
       d="m 106.38731,126.65626 -15.177836,5.98755 -7.454202,12.3493 3.682197,18.05617 9.340205,10.57175 13.740876,-0.84199 11.85488,-5.14555 2.60447,-15.15596 -4.49047,-18.71106 -8.98098,-6.17466 z"
       id="path672" />
    <path
       id="path8463"
       style="font-variation-settings:'wdth' 100, 'wght' 900;fill:#000000;stroke-width:1.19492;stroke-linecap:round;paint-order:stroke fill markers"
       d="m 105.01292,124.39949 c -16.303314,0 -23.549984,9.80599 -23.549984,27.27586 0,17.46987 8.238297,26.27677 23.549984,26.21751 15.31169,-0.0593 23.52414,-8.63004 23.52414,-26.21751 0,-17.58747 -7.22082,-27.27586 -23.52414,-27.27586 z m 17.19274,27.27586 c 0,17.56153 -7.98596,19.28718 -17.19274,19.28718 -9.206775,0 -17.175704,-2.67051 -17.175704,-19.28718 0,-16.61668 7.64066,-20.34502 17.175704,-20.34502 9.53505,0 17.19274,2.7835 17.19274,20.34502 z"
       sodipodi:nodetypes="zzzzzzzzzz" />
  </g>
</svg>
