<?xml version="1.0" encoding="UTF-8" standalone="no"?>
<!-- Created with Inkscape (http://www.inkscape.org/) -->

<svg
   width="210mm"
   height="297mm"
   viewBox="0 0 210 297"
   version="1.1"
   id="svg8194"
   sodipodi:docname="721_mouth_f_v_mischievous.svg"
   inkscape:version="1.2-beta (1b65182ce9, 2022-04-05)"
   xmlns:inkscape="http://www.inkscape.org/namespaces/inkscape"
   xmlns:sodipodi="http://sodipodi.sourceforge.net/DTD/sodipodi-0.dtd"
   xmlns="http://www.w3.org/2000/svg"
   xmlns:svg="http://www.w3.org/2000/svg">
  <sodipodi:namedview
     id="namedview8196"
     pagecolor="#ffffff"
     bordercolor="#666666"
     borderopacity="1.0"
     inkscape:pageshadow="2"
     inkscape:pageopacity="0.0"
     inkscape:pagecheckerboard="0"
     inkscape:deskcolor="#d1d1d1"
     inkscape:document-units="mm"
     showgrid="false"
     inkscape:zoom="1.5393939"
     inkscape:cx="401.45669"
     inkscape:cy="675.26575"
     inkscape:window-width="1920"
     inkscape:window-height="991"
     inkscape:window-x="-9"
     inkscape:window-y="-9"
     inkscape:window-maximized="1"
     inkscape:current-layer="layer1" />
  <defs
     id="defs8191" />
  <g
     inkscape:label="Layer 1"
     inkscape:groupmode="layer"
     id="layer1">
    <path
       id="path7964"
       style="fill:#ffffff;fill-opacity:1;stroke:none;stroke-width:0.283166px;stroke-linecap:butt;stroke-linejoin:miter;stroke-opacity:1"
       d="m 154.96108,151.46052 -29.83538,5.53972 -32.797485,2.95485 -42.954485,-3.87831 -2.908959,13.83719 1.511112,11.38297 21.633305,-4.7811 25.964823,6.84299 12.541799,10.09726 33.01459,-12.65627 28.19053,-2.01538 15.03371,2.98793 1.49965,-3.72019 -1.48105,-13.66531 -7.40575,-11.26443 z"
       sodipodi:nodetypes="cccccccccccccccc" />
    <path
       id="path7945-2"
       style="font-variation-settings:'wdth' 100, 'wght' 900;fill:#e6e6e6;stroke-width:1.19492;stroke-linecap:round;paint-order:stroke fill markers"
       d="m 185.18908,165.63824 -1.5875,6.94014 c -27.02178,9.51488 -67.23411,13.7691 -66.98729,7.94514 0.22002,-5.19152 14.65984,0.9315 68.57479,-14.88528 z"
       sodipodi:nodetypes="ccsc" />
    <path
       id="path7945"
       style="font-variation-settings:'wdth' 100, 'wght' 900;fill:#000000;stroke-width:1.19492;stroke-linecap:round;paint-order:stroke fill markers"
       d="M 156.99817 146.85357 C 136.76501 146.85357 121.00475 156.06593 99.737065 156.06593 C 47.904851 156.06593 22.524759 145.63893 20.905701 149.57433 C 19.501219 152.98816 28.735008 156.1346 42.644942 158.52004 C 41.648434 161.23048 38.423403 171.68994 43.344124 182.32014 L 52.240739 180.35437 C 47.458302 171.93878 49.125741 163.35261 50.219157 159.67914 C 65.101391 161.72429 83.410059 162.97558 99.737065 162.97558 C 125.20952 162.97558 137.83947 154.0092 156.99817 154.0092 C 171.52491 154.0092 181.99923 157.49556 181.99923 172.42462 C 181.99923 175.58559 181.40812 178.42224 180.2939 180.96518 L 187.56633 182.41057 C 188.66731 179.3907 189.23496 176.06867 189.23496 172.42462 C 189.23496 153.779 177.1201 146.85357 156.99817 146.85357 z " />
    <path
       id="path2866"
       style="font-variation-settings:'wdth' 100, 'wght' 900;fill:#000000;stroke-width:1.19492;stroke-linecap:round;paint-order:stroke fill markers"
       d="m 68.373986,174.60156 c 32.469104,0 45.161914,19.60644 42.335374,21.23833 -5.28395,3.05068 -8.81615,-14.30769 -42.335374,-14.30769 -33.51923,0 -40.435927,11.55385 -43.535397,9.76437 -3.33723,-1.92675 11.066287,-16.69501 43.535397,-16.69501 z"
       sodipodi:nodetypes="zszsz" />
    <path
       id="path3594"
       style="font-variation-settings:'wdth' 100, 'wght' 900;fill:#000000;stroke-width:1.19492;stroke-linecap:round;paint-order:stroke fill markers"
       d="m 153.56986,174.60156 c 31.67536,-2.11667 46.49555,14.83323 43.27084,16.69501 -2.93181,1.69268 -9.75161,-12.01333 -43.27084,-9.76437 -33.51923,2.24896 -46.1245,19.88823 -49.22397,18.09875 -3.33723,-1.92675 17.54861,-22.91272 49.22397,-25.02939 z"
       sodipodi:nodetypes="zszsz" />
  </g>
</svg>
