<?xml version="1.0" encoding="UTF-8" standalone="no"?>
<!-- Created with Inkscape (http://www.inkscape.org/) -->

<svg
   width="210mm"
   height="297mm"
   viewBox="0 0 210 297"
   version="1.1"
   id="svg8194"
   sodipodi:docname="721_mouth_teeth_f_v_worried.svg"
   inkscape:version="1.2-beta (1b65182ce9, 2022-04-05)"
   xmlns:inkscape="http://www.inkscape.org/namespaces/inkscape"
   xmlns:sodipodi="http://sodipodi.sourceforge.net/DTD/sodipodi-0.dtd"
   xmlns="http://www.w3.org/2000/svg"
   xmlns:svg="http://www.w3.org/2000/svg">
  <sodipodi:namedview
     id="namedview8196"
     pagecolor="#ffffff"
     bordercolor="#666666"
     borderopacity="1.0"
     inkscape:pageshadow="2"
     inkscape:pageopacity="0.0"
     inkscape:pagecheckerboard="0"
     inkscape:deskcolor="#d1d1d1"
     inkscape:document-units="mm"
     showgrid="false"
     inkscape:zoom="2.0000001"
     inkscape:cx="382.99998"
     inkscape:cy="682.74997"
     inkscape:window-width="1920"
     inkscape:window-height="991"
     inkscape:window-x="-9"
     inkscape:window-y="-9"
     inkscape:window-maximized="1"
     inkscape:current-layer="layer1"
     showguides="false" />
  <defs
     id="defs8191" />
  <g
     inkscape:label="Layer 1"
     inkscape:groupmode="layer"
     id="layer1">
    <path
       id="path9493"
       style="font-variation-settings:'wght' 50;fill:#ffffff;fill-opacity:1;stroke:none;stroke-width:0.175466;stroke-linecap:round;paint-order:stroke fill markers"
       d="m 67.808264,143.5778 -30.53147,3.95996 -10.576615,9.74618 0.533301,26.06197 0.84646,1.27331 c 7.321599,-3.39982 18.162989,-6.30349 32.558736,-6.30349 16.768151,0 28.261512,5.22947 35.06711,10.5115 l 6.500894,8.10597 44.93421,-17.28111 30.66686,6.55515 4.8643,-0.35605 -3.04115,-32.23421 -14.00897,-8.3106 -29.49381,0.27026 -29.3181,6.05441 z"
       sodipodi:nodetypes="cccccscccccccccc" />
    <path
       id="path7945"
       style="font-variation-settings:'wdth' 100, 'wght' 900;fill:#000000;stroke-width:1.19492;stroke-linecap:round;paint-order:stroke fill markers"
       d="m 181.35741,168.77368 v 6.94222 h -1.86707 v -5.2e-4 c -50.16745,0.003 -59.45615,-0.20511 -59.46046,-3.47007 -0.004,-3.30368 3.91375,-3.47929 55.35941,-3.47163 0.57395,9e-5 2.39005,4e-4 4.10105,5.2e-4 v -5.2e-4 z" />
    <path
       id="path2866"
       style="font-variation-settings:'wdth' 100, 'wght' 900;fill:#000000;stroke-width:1.19492;stroke-linecap:round;paint-order:stroke fill markers"
       d="m 60.638743,178.31587 c 32.469,0 45.161997,19.60644 42.334997,21.23833 -5.283997,3.05068 -8.815997,-14.30769 -42.334997,-14.30769 -33.519,0 -40.436,11.55385 -43.535,9.76437 -3.338,-1.92675 11.066,-16.69501 43.535,-16.69501 z"
       sodipodi:nodetypes="zszsz" />
    <path
       id="path3594"
       style="font-variation-settings:'wdth' 100, 'wght' 900;fill:#000000;stroke-width:1.19492;stroke-linecap:round;paint-order:stroke fill markers"
       d="m 145.83474,178.31587 c 31.675,-2.11667 46.495,14.83323 43.271,16.69501 -2.932,1.69268 -9.752,-12.01333 -43.271,-9.76437 -33.519,2.24896 -46.124997,19.88823 -49.223997,18.09875 -3.337,-1.92675 17.547997,-22.91272 49.223997,-25.02939 z"
       sodipodi:nodetypes="zszsz" />
    <path
       id="path239"
       style="font-variation-settings:'wdth' 100, 'wght' 900;fill:#000000;stroke-width:1.19492;stroke-linecap:round;paint-order:stroke fill markers"
       d="m 55.333055,141.55363 c -17.16226,0.0363 -32.07866,6.39215 -32.07866,29.51396 0,5.88707 0.94009,10.71377 2.61741,14.65027 1.77517,-0.93941 3.80237,-1.86028 6.09162,-2.71714 -1.49709,-3.17031 -2.33474,-7.09834 -2.33474,-11.93313 0,-42.14825 65.58991,-13.46584 75.384025,-13.46584 9.79412,0 75.40108,-27.4464 75.40108,13.46584 0,5.18363 -1.02293,9.2998 -2.82773,12.54291 2.189,1.05009 4.0794,2.16942 5.67045,3.28507 2.22103,-4.08823 3.48868,-9.28147 3.48868,-15.82798 0,-48.82525 -72.62247,-20.39668 -81.73248,-20.39668 -4.98203,0 -28.966575,-9.16109 -49.679655,-9.11728 z"
       sodipodi:nodetypes="ssccsssccsss" />
  </g>
</svg>
