<?xml version="1.0" encoding="UTF-8" standalone="no"?>
<!-- Created with Inkscape (http://www.inkscape.org/) -->

<svg
   width="210mm"
   height="297mm"
   viewBox="0 0 210 297"
   version="1.1"
   id="svg8194"
   sodipodi:docname="721_mouth_open_e_smile.svg"
   inkscape:version="1.2-beta (1b65182ce9, 2022-04-05)"
   xmlns:inkscape="http://www.inkscape.org/namespaces/inkscape"
   xmlns:sodipodi="http://sodipodi.sourceforge.net/DTD/sodipodi-0.dtd"
   xmlns="http://www.w3.org/2000/svg"
   xmlns:svg="http://www.w3.org/2000/svg">
  <sodipodi:namedview
     id="namedview8196"
     pagecolor="#ffffff"
     bordercolor="#666666"
     borderopacity="1.0"
     inkscape:pageshadow="2"
     inkscape:pageopacity="0.0"
     inkscape:pagecheckerboard="0"
     inkscape:deskcolor="#d1d1d1"
     inkscape:document-units="mm"
     showgrid="false"
     inkscape:zoom="0.70710678"
     inkscape:cx="803.2733"
     inkscape:cy="671.04434"
     inkscape:window-width="1920"
     inkscape:window-height="991"
     inkscape:window-x="-9"
     inkscape:window-y="-9"
     inkscape:window-maximized="1"
     inkscape:current-layer="layer1" />
  <defs
     id="defs8191" />
  <g
     inkscape:label="Layer 1"
     inkscape:groupmode="layer"
     id="layer1">
    <path
       style="fill:#a82626;fill-opacity:1;stroke:none;stroke-width:0.21372px;stroke-linecap:butt;stroke-linejoin:miter;stroke-opacity:1"
       d="m 100.16968,150.99857 -28.218513,-4.58825 -42.328916,-7.38933 -2.960917,6.96286 1.851525,11.70359 3.7942,11.41719 c 17.502522,17.78265 33.781438,22.52569 62.632249,23.87839 34.312882,0.90615 84.405952,-8.20495 88.019472,-31.66668 l -0.18587,-21.10519 -46.10401,7.56892 z"
       id="path18886"
       sodipodi:nodetypes="ccccccccccc" />
    <path
       id="path20173"
       style="font-variation-settings:'wght' 50;fill:#ea2c4f;fill-opacity:1;stroke-width:0.239782;stroke-linecap:round;paint-order:stroke fill markers"
       d="m 154.74238,159.97594 c -14.49113,-0.81833 -24.73383,8.32977 -25.55232,22.82088 -0.11071,1.96059 -0.0376,3.84243 0.20505,5.63467 l 21.62391,-1.13845 23.25922,-16.42051 c -3.80753,-6.36834 -10.67194,-10.39594 -19.53586,-10.89659 z" />
    <path
       id="path8463"
       style="font-variation-settings:'wdth' 100, 'wght' 900;fill:#000000;stroke-width:1.19492;stroke-linecap:round;paint-order:stroke fill markers"
       d="m 105.01292,147.01638 c -61.681934,0 -81.758318,-25.49869 -81.758318,2.9342 0,24.8782 22.420396,45.49717 81.758318,45.26751 59.33792,-0.22966 81.73248,-21.01731 81.73248,-45.26751 0,-26.49527 -20.05055,-2.9342 -81.73248,-2.9342 z m 75.40108,2.9342 c 0,23.18198 -23.09468,38.33718 -75.40108,38.33718 -52.306406,0 -75.384035,-15.63508 -75.384035,-38.33718 0,-16.90235 13.953435,3.99664 75.384035,3.99664 61.4306,0 75.40108,-19.69507 75.40108,-3.99664 z"
       sodipodi:nodetypes="zszszszszs" />
  </g>
</svg>
