<?xml version="1.0" encoding="UTF-8" standalone="no"?>
<!-- Created with Inkscape (http://www.inkscape.org/) -->

<svg
   width="210mm"
   height="297mm"
   viewBox="0 0 210 297"
   version="1.1"
   id="svg8194"
   sodipodi:docname="721_mouth_open_o_smile.svg"
   inkscape:version="1.2-beta (1b65182ce9, 2022-04-05)"
   xmlns:inkscape="http://www.inkscape.org/namespaces/inkscape"
   xmlns:sodipodi="http://sodipodi.sourceforge.net/DTD/sodipodi-0.dtd"
   xmlns="http://www.w3.org/2000/svg"
   xmlns:svg="http://www.w3.org/2000/svg">
  <sodipodi:namedview
     id="namedview8196"
     pagecolor="#ffffff"
     bordercolor="#666666"
     borderopacity="1.0"
     inkscape:pageshadow="2"
     inkscape:pageopacity="0.0"
     inkscape:pagecheckerboard="0"
     inkscape:deskcolor="#d1d1d1"
     inkscape:document-units="mm"
     showgrid="false"
     inkscape:zoom="1"
     inkscape:cx="552"
     inkscape:cy="822.5"
     inkscape:window-width="1920"
     inkscape:window-height="991"
     inkscape:window-x="-9"
     inkscape:window-y="-9"
     inkscape:window-maximized="1"
     inkscape:current-layer="layer1" />
  <defs
     id="defs8191" />
  <g
     inkscape:label="Layer 1"
     inkscape:groupmode="layer"
     id="layer1">
    <path
       style="fill:#a82626;fill-opacity:1;stroke:none;stroke-width:0.2559px;stroke-linecap:butt;stroke-linejoin:miter;stroke-opacity:1"
       d="m 99.834351,153.49296 -18.44838,-5.73587 -31.408446,-7.94235 -2.149525,13.75064 1.344144,23.11291 5.33504,18.11364 c 12.706232,35.11818 21.943589,48.91867 42.888292,51.59005 24.909974,1.78952 58.016154,-21.7457 60.639444,-68.07923 l 4.74541,-35.94166 -36.85625,7.36213 z"
       id="path18886"
       sodipodi:nodetypes="ccccccccccc" />
    <path
       id="path20173"
       style="font-variation-settings:'wght' 50;fill:#ea2c4f;fill-opacity:1;stroke-width:0.239782;stroke-linecap:round;paint-order:stroke fill markers"
       d="m 128.99481,213.85535 c -14.40832,1.75013 -22.87713,12.56123 -21.12716,26.96956 0.23678,1.94938 0.6406,3.78883 1.19556,5.51018 l 21.08419,-4.93416 19.99876,-20.2651 c -4.87095,-5.59702 -12.33808,-8.3509 -21.15135,-7.28048 z" />
    <path
       id="path8463"
       style="font-variation-settings:'wdth' 100, 'wght' 900;fill:#000000;stroke-width:1.19492;stroke-linecap:round;paint-order:stroke fill markers"
       d="m 105.01292,147.01638 c -43.161093,0 -60.591652,-25.49869 -60.591652,2.9342 0,24.8782 3.104764,98.40667 60.591652,98.18417 57.48689,-0.2225 60.56582,-73.93397 60.56582,-98.18417 0,-29.48869 -17.40473,-2.9342 -60.56582,-2.9342 z m 54.23442,2.9342 c 0,23.18198 -1.92802,91.25384 -54.23442,91.25384 -52.306406,0 -54.217369,-68.55174 -54.217369,-91.25384 0,-16.90235 11.039926,3.99664 54.217369,3.99664 43.17744,0 54.23442,-19.69507 54.23442,-3.99664 z"
       sodipodi:nodetypes="zszszszszs" />
  </g>
</svg>
